<svg width="24" height="22" viewBox="0 0 24 22" fill="none" xmlns="http://www.w3.org/2000/svg">
<path d="M20.5685 8.25H14.6918V2.75C14.6918 2.02065 14.3822 1.32118 13.8312 0.805456C13.2801 0.289731 12.5327 0 11.7534 0C10.9741 0 10.2267 0.289731 9.67569 0.805456C9.12464 1.32118 8.81507 2.02065 8.81507 2.75V8.25H2.93836C2.15906 8.25 1.41167 8.53973 0.860624 9.05546C0.309576 9.57118 0 10.2707 0 11C0 11.7293 0.309576 12.4288 0.860624 12.9445C1.41167 13.4603 2.15906 13.75 2.93836 13.75H8.81507V19.25C8.81507 19.9793 9.12464 20.6788 9.67569 21.1945C10.2267 21.7103 10.9741 22 11.7534 22C12.5327 22 13.2801 21.7103 13.8312 21.1945C14.3822 20.6788 14.6918 19.9793 14.6918 19.25V13.75H20.5685C21.3478 13.75 22.0952 13.4603 22.6462 12.9445C23.1973 12.4288 23.5068 11.7293 23.5068 11C23.5068 10.2707 23.1973 9.57118 22.6462 9.05546C22.0952 8.53973 21.3478 8.25 20.5685 8.25Z" fill="#CDD4D8"/>
</svg>
