<svg width="20" height="20" viewBox="0 0 20 20" fill="none" xmlns="http://www.w3.org/2000/svg">
<rect width="20" height="20" rx="5.22876" fill="#02BF90"/>
<path d="M5.81422 8.00105C6.37829 7.13986 7.25805 6.50478 8.28724 6.25595C8.36654 6.23695 8.43186 6.1808 8.46245 6.10543C8.49325 6.02984 8.48582 5.9442 8.44257 5.87495C8.11312 5.34976 7.53026 5 6.86438 5C5.83497 5 5 5.83453 5 6.86394C5 7.30087 5.15096 7.70219 5.40307 8.01962C5.45353 8.08363 5.53174 8.11902 5.61323 8.11531C5.69472 8.11159 5.76965 8.06899 5.81422 8.00105Z" fill="white"/>
<path d="M12.5437 5C11.8809 5 11.3 5.34648 10.9699 5.86818C10.9262 5.93721 10.9185 6.02351 10.9493 6.09953C10.9804 6.17578 11.0459 6.2317 11.1261 6.25049C12.1581 6.49342 13.0409 7.12413 13.6098 7.98248C13.655 8.05064 13.7304 8.0928 13.8123 8.09564C13.8942 8.0987 13.972 8.062 14.0223 7.99712C14.2637 7.6834 14.4081 7.29104 14.4081 6.86416C14.4074 5.83453 13.5731 5 12.5437 5Z" fill="white"/>
<path d="M13.8261 10.7095C13.8261 9.98983 13.6389 9.31347 13.3125 8.72492C12.7076 7.63478 11.6212 6.85115 10.3425 6.65497C10.1387 6.62373 9.93179 6.60254 9.71922 6.60254C9.49726 6.60254 9.28098 6.62526 9.06842 6.65934C7.7952 6.8636 6.71424 7.65051 6.11565 8.74196C5.79516 9.32657 5.6123 9.99682 5.6123 10.7095C5.6123 11.9298 6.15038 13.0245 6.99803 13.7769L6.65198 14.2643C6.50299 14.4743 6.55236 14.7648 6.7623 14.9142C6.84423 14.9724 6.93839 15.0005 7.03167 15.0005C7.1776 15.0005 7.32135 14.9322 7.41202 14.8044L7.75785 14.3172C8.34093 14.6355 9.00921 14.8168 9.71922 14.8168C10.429 14.8168 11.0973 14.6355 11.6804 14.3172L12.0262 14.8044C12.1171 14.9324 12.2606 15.0005 12.4066 15.0005C12.4998 15.0005 12.5938 14.9724 12.6757 14.9142C12.8856 14.7648 12.9352 14.4743 12.7862 14.2643L12.4402 13.7769C13.2878 13.0245 13.8261 11.9298 13.8261 10.7095ZM9.71944 13.6679C8.08795 13.6679 6.76099 12.3409 6.76099 10.7095C6.76099 10.2009 6.8901 9.72221 7.11687 9.30364C7.54856 8.50755 8.3359 7.93408 9.2635 7.78968C9.4125 7.76652 9.56389 7.75079 9.71944 7.75079C9.86581 7.75079 10.0089 7.76499 10.1498 7.78574C11.0853 7.92294 11.8811 8.49641 12.3179 9.29599C12.5472 9.7161 12.6777 10.1974 12.6777 10.7092C12.6777 12.3409 11.3507 13.6679 9.71944 13.6679Z" fill="white"/>
<path d="M11.3761 11.4013L10.2475 10.7044C10.2242 10.5724 10.1527 10.4586 10.0524 10.378L10.104 8.96191C10.1103 8.78102 9.96921 8.62919 9.78854 8.62241C9.6083 8.61411 9.45582 8.75699 9.44904 8.93788L9.39727 10.3555C9.25723 10.4542 9.16504 10.6168 9.16504 10.8014C9.16504 11.1031 9.4095 11.3473 9.7112 11.3473C9.79706 11.3473 9.87723 11.3257 9.94933 11.2905L11.0318 11.9595C11.0856 11.9922 11.1452 12.0082 11.2038 12.0082C11.3136 12.0082 11.4207 11.9531 11.4829 11.8529C11.5782 11.6984 11.5301 11.4965 11.3761 11.4013Z" fill="white"/>
</svg>
