<svg width="38" height="38" viewBox="0 0 38 38" fill="none" xmlns="http://www.w3.org/2000/svg">
<rect opacity="0.2" x="1.5" y="1.5" width="35" height="35" rx="11.5" fill="#BBBBBB" stroke="white" stroke-width="3"/>
<g clipPath="url(#clip0_11242_14604)">
<path d="M24.2736 13.4319V12.6808C24.2736 12.3068 23.9668 12 23.5928 12C23.2156 12 22.912 12.3068 22.912 12.6808V13.3616H20.1824V12.6808C20.1824 12.3068 19.8756 12 19.5016 12C19.1244 12 18.8208 12.3068 18.8208 12.6808V13.3616H16.0912V12.6808C16.0912 12.3068 15.7844 12 15.4104 12C15.0364 12 14.7264 12.3068 14.7264 12.6808V13.4319C13.1411 13.7547 12 15.1515 12 16.772V23.5896C12 25.4722 13.5278 27 15.4104 27H23.5928C25.4754 27 27.0032 25.4722 27.0032 23.5896V16.772C27 15.1515 25.8621 13.7547 24.2736 13.4319ZM25.6384 23.5928C25.6384 24.7211 24.7211 25.6384 23.5928 25.6384H15.4104C14.2821 25.6384 13.3648 24.7211 13.3648 23.5928V16.772C13.368 15.9058 13.9146 15.1387 14.7296 14.8479V15.4072C14.7296 15.7844 15.0364 16.088 15.4104 16.088C15.7844 16.088 16.0912 15.7812 16.0912 15.4072V14.7264H18.8176V15.4072C18.8176 15.7844 19.1244 16.088 19.4984 16.088C19.8756 16.088 20.1792 15.7812 20.1792 15.4072V14.7264H22.9056V15.4072C22.9056 15.7844 23.2124 16.088 23.5864 16.088C23.9636 16.088 24.2672 15.7812 24.2672 15.4072V14.8511C25.0823 15.1387 25.6288 15.909 25.632 16.7752V23.5928H25.6384ZM22.7458 18.3701C23.0143 18.6354 23.0143 19.0669 22.749 19.3354L22.7458 19.3386L19.4664 22.5636C19.2012 22.8289 18.7697 22.8289 18.5044 22.5636L16.9414 21.0358C16.6729 20.7705 16.6729 20.339 16.9382 20.0705L16.9414 20.0673C17.2067 19.802 17.6382 19.802 17.9035 20.0673L18.9806 21.1253L21.7901 18.3989C22.049 18.1272 22.4741 18.1176 22.7458 18.3701Z" fill="#797979"/>
</g>
<defs>
<clipPath id="clip0_11242_14604">
<rect width="15" height="15" fill="white" transform="translate(12 12)"/>
</clipPath>
</defs>
</svg>
