<svg width="35" height="35" viewBox="0 0 35 35" fill="none" xmlns="http://www.w3.org/2000/svg">
<circle opacity="0.2" cx="17.5" cy="17.5" r="17.5" fill="#02BF90"/>
<path d="M24.3806 17.281L18.3282 23.3333C17.379 24.3016 16.1114 24.8936 14.7596 24.9997H14.4138C13.2376 25.0132 12.105 24.5546 11.2697 23.7263C9.4304 21.8871 9.61119 18.7115 11.6706 16.6521L17.0941 11.2286C17.4007 10.9238 17.8958 10.9238 18.2024 11.2286C18.3512 11.3762 18.4349 11.5771 18.4349 11.7866C18.4349 11.9962 18.3512 12.1971 18.2024 12.3447L12.771 17.7761C11.3169 19.2224 11.1361 21.3997 12.3623 22.6259C12.975 23.2067 13.8093 23.4934 14.6496 23.4119C15.6219 23.3311 16.5321 22.9011 17.212 22.2015L23.3037 16.1727C24.2159 15.3978 24.3416 14.036 23.5867 13.1072C22.6605 12.3531 21.3012 12.4789 20.5291 13.3901L14.4767 19.4425C14.2788 19.6346 14.1561 19.8911 14.1308 20.1657C14.1088 20.3666 14.1747 20.5672 14.3116 20.7159C14.7118 21.0047 15.267 20.9361 15.585 20.5587L21.9596 14.184C22.2662 13.8793 22.7613 13.8793 23.0679 14.184C23.2167 14.3316 23.3004 14.5325 23.3004 14.7421C23.3004 14.9517 23.2167 15.1526 23.0679 15.3002L16.7011 21.667C15.7789 22.6743 14.2163 22.748 13.2033 21.832C12.2853 20.8211 12.3555 19.2587 13.3605 18.3342L19.3736 12.2818C20.7611 10.7532 23.1209 10.6269 24.6635 11.9989C26.0346 13.5389 25.9083 15.8962 24.3806 17.281Z" fill="#02BF90"/>
</svg>
