<svg width="42" height="42" viewBox="0 0 42 42" fill="none" xmlns="http://www.w3.org/2000/svg">
<rect width="42" height="42" rx="21" fill="#02BF90"/>
<path d="M28.5775 20.1782L21.6005 27.0952C20.5064 28.2019 19.0451 28.8784 17.4868 28.9997H17.0881C15.7322 29.0151 14.4266 28.4909 13.4637 27.5444C11.3434 25.4423 11.5518 21.8132 13.9258 19.4596L20.1779 13.2612C20.5313 12.9129 21.1021 12.9129 21.4555 13.2612C21.6271 13.4299 21.7236 13.6595 21.7236 13.899C21.7236 14.1385 21.6271 14.3682 21.4555 14.5368L15.1943 20.7442C13.518 22.3971 13.3096 24.8854 14.7232 26.2868C15.4295 26.9505 16.3913 27.2781 17.3599 27.1851C18.4808 27.0927 19.53 26.6013 20.3138 25.8017L27.3362 18.9116C28.3877 18.026 28.5326 16.4697 27.6624 15.4082C26.5947 14.5464 25.0277 14.6902 24.1376 15.7316L17.1606 22.6486C16.9325 22.8681 16.7911 23.1612 16.7619 23.475C16.7365 23.7047 16.8125 23.9339 16.9703 24.1039C17.4317 24.4339 18.0717 24.3556 18.4382 23.9242L25.7867 16.6389C26.1402 16.2906 26.7109 16.2906 27.0643 16.6389C27.2359 16.8076 27.3324 17.0372 27.3324 17.2767C27.3324 17.5162 27.2359 17.7458 27.0643 17.9145L19.7249 25.1908C18.6617 26.342 16.8605 26.4263 15.6927 25.3795C14.6344 24.2241 14.7154 22.4385 15.8739 21.382L22.8056 14.465C24.4051 12.7179 27.1254 12.5736 28.9037 14.1416C30.4843 15.9016 30.3387 18.5956 28.5775 20.1782Z" fill="white"/>
</svg>
