<svg width="17" height="17" viewBox="0 0 17 17" fill="none" xmlns="http://www.w3.org/2000/svg">
<path d="M12.75 0.85C12.75 0.37995 12.3692 0 11.9 0C11.4308 0 11.05 0.37995 11.05 0.85H5.95C5.95 0.37995 5.5692 0 5.1 0C4.6308 0 4.25 0.37995 4.25 0.85C1.90655 0.85 0 2.75655 0 5.1V12.75C0 15.0935 1.90655 17 4.25 17H12.75C15.0935 17 17 15.0935 17 12.75V5.1C17 2.75655 15.0935 0.85 12.75 0.85ZM4.25 2.55V3.4C4.25 3.87005 4.6308 4.25 5.1 4.25C5.5692 4.25 5.95 3.87005 5.95 3.4V2.55H11.05V3.4C11.05 3.87005 11.4308 4.25 11.9 4.25C12.3692 4.25 12.75 3.87005 12.75 3.4V2.55C14.1559 2.55 15.3 3.6941 15.3 5.1H1.7C1.7 3.6941 2.8441 2.55 4.25 2.55ZM12.75 15.3H4.25C2.8441 15.3 1.7 14.1559 1.7 12.75V6.8H15.3V12.75C15.3 14.1559 14.1559 15.3 12.75 15.3ZM12.75 9.35C12.75 9.8192 12.3692 10.2 11.9 10.2C11.4308 10.2 11.05 9.8192 11.05 9.35C11.05 8.8808 11.4308 8.5 11.9 8.5C12.3692 8.5 12.75 8.8808 12.75 9.35ZM9.35 9.35C9.35 9.8192 8.9692 10.2 8.5 10.2C8.0308 10.2 7.65 9.8192 7.65 9.35C7.65 8.8808 8.0308 8.5 8.5 8.5C8.9692 8.5 9.35 8.8808 9.35 9.35ZM5.95 9.35C5.95 9.8192 5.5692 10.2 5.1 10.2C4.6308 10.2 4.25 9.8192 4.25 9.35C4.25 8.8808 4.6308 8.5 5.1 8.5C5.5692 8.5 5.95 8.8808 5.95 9.35ZM12.75 12.75C12.75 13.2192 12.3692 13.6 11.9 13.6C11.4308 13.6 11.05 13.2192 11.05 12.75C11.05 12.2808 11.4308 11.9 11.9 11.9C12.3692 11.9 12.75 12.2808 12.75 12.75ZM9.35 12.75C9.35 13.2192 8.9692 13.6 8.5 13.6C8.0308 13.6 7.65 13.2192 7.65 12.75C7.65 12.2808 8.0308 11.9 8.5 11.9C8.9692 11.9 9.35 12.2808 9.35 12.75ZM5.95 12.75C5.95 13.2192 5.5692 13.6 5.1 13.6C4.6308 13.6 4.25 13.2192 4.25 12.75C4.25 12.2808 4.6308 11.9 5.1 11.9C5.5692 11.9 5.95 12.2808 5.95 12.75Z" fill="#02BF90"/>
</svg>
