<svg width="25" height="25" viewBox="0 0 25 25" fill="none" xmlns="http://www.w3.org/2000/svg">
<path d="M24.9163 18.1996C24.8851 18.0196 24.8476 17.8607 24.8088 17.7232C24.5576 16.8257 23.7801 16.143 22.8275 15.983L17.4134 15.0817C16.5058 14.9355 15.5907 15.283 15.032 15.9931C14.9595 16.0843 14.8894 16.1793 14.7494 16.3343C12.0142 15.1454 9.85286 12.9829 8.71029 10.184C8.83904 10.0977 8.96283 10.0052 9.08034 9.90898C9.77663 9.3477 10.1217 8.4477 9.98166 7.56264L9.14282 2.24338C8.99656 1.31207 8.35652 0.550905 7.47272 0.258386C7.28145 0.194632 7.05645 0.134674 6.79518 0.0871711C5.12007 -0.210348 3.40616 0.260893 2.08982 1.39097C0.713485 2.57355 -0.0465438 4.28969 0.00220942 6.10105C0.279728 16.418 8.58031 24.72 18.8985 24.9988C18.9522 25 19.0072 25 19.061 25C20.7974 25 22.4387 24.2485 23.5838 22.9234C24.7239 21.6059 25.2089 19.8835 24.9163 18.1996ZM21.6924 21.2897C21.0036 22.0873 20.031 22.5223 18.9647 22.5011C9.97537 22.2585 2.74237 15.0254 2.49986 6.03483C2.47235 4.97976 2.91618 3.97994 3.71873 3.2899C4.32127 2.77236 5.04255 2.49974 5.7901 2.49974C5.97511 2.49974 6.1614 2.51729 6.34891 2.5498C6.47767 2.5748 6.58889 2.60217 6.67265 2.63342L7.50522 7.97007C7.44272 8.02008 7.37769 8.06754 7.30768 8.11504C6.26386 8.82509 5.87759 10.1128 6.37012 11.2467C7.81146 14.5644 10.4329 17.1855 13.7494 18.6281C14.8819 19.1207 16.1721 18.7359 16.8834 17.6921L16.9996 17.5483L22.3999 18.3995C22.4187 18.467 22.4362 18.5421 22.4512 18.6296C22.6162 19.571 22.3399 20.5422 21.6924 21.2897Z" fill="#41416E"/>
</svg>
