<svg width="20" height="20" viewBox="0 0 20 20" fill="none" xmlns="http://www.w3.org/2000/svg">
<path d="M16 5V4C16 1.794 14.206 0 12 0H4C1.794 0 0 1.794 0 4V14C0 14.406 0.246009 14.772 0.622009 14.926C0.744009 14.976 0.872 15 1 15C1.264 15 1.52199 14.896 1.71399 14.7L3.38 13H4V14C4 16.206 5.794 18 8 18H16.62L18.286 19.7C18.478 19.895 18.737 20 19 20C19.127 20 19.256 19.976 19.378 19.926C19.754 19.773 20 19.406 20 19V9C20 6.794 18.206 5 16 5ZM2.95999 11C2.69099 11 2.434 11.108 2.246 11.3L2 11.551V4C2 2.897 2.897 2 4 2H12C13.103 2 14 2.897 14 4V9C14 10.103 13.103 11 12 11H2.95999ZM18 16.551L17.754 16.3C17.566 16.109 17.308 16 17.04 16H8C6.897 16 6 15.103 6 14V13H12C14.206 13 16 11.206 16 9V7C17.103 7 18 7.897 18 9V16.551Z" fill="#BBBBBB"/>
</svg>
