<svg width="24" height="24" viewBox="0 0 24 24" fill="none" xmlns="http://www.w3.org/2000/svg">
<path d="M12 0C5.388 0 0 5.388 0 12C0 18.612 5.388 24 12 24C18.612 24 24 18.612 24 12C24 5.388 18.612 0 12 0ZM17.652 10.452L11.652 16.452C11.412 16.68 11.112 16.8 10.8 16.8C10.488 16.8 10.188 16.68 9.94801 16.452L6.34801 12.852C5.88001 12.384 5.88001 11.616 6.34801 11.148C6.81601 10.68 7.58399 10.68 8.05199 11.148L10.8 13.9081L15.948 8.74805C16.416 8.28005 17.184 8.28005 17.652 8.74805C18.12 9.21605 18.12 9.98395 17.652 10.452Z" fill="#02BF90"/>
</svg>
