<svg width="16" height="16" viewBox="0 0 16 16" fill="none" xmlns="http://www.w3.org/2000/svg">
<path d="M8.00003 16C6.41778 16 4.87106 15.5308 3.55547 14.6518C2.23988 13.7727 1.2145 12.5233 0.608998 11.0615C0.0034968 9.59966 -0.15493 7.99113 0.153752 6.43928C0.462434 4.88743 1.22436 3.46197 2.34318 2.34315C3.462 1.22433 4.88746 0.462403 6.43931 0.153721C7.99116 -0.15496 9.59969 0.00346629 11.0615 0.608967C12.5233 1.21447 13.7727 2.23985 14.6518 3.55544C15.5308 4.87103 16 6.41775 16 8C15.9977 10.121 15.1541 12.1545 13.6544 13.6543C12.1546 15.1541 10.1211 15.9977 8.00003 16ZM8.00003 1.33334C6.68149 1.33334 5.39256 1.72433 4.29623 2.45687C3.1999 3.18941 2.34542 4.23061 1.84084 5.44878C1.33625 6.66695 1.20423 8.0074 1.46147 9.3006C1.7187 10.5938 2.35364 11.7817 3.28599 12.714C4.21834 13.6464 5.40622 14.2813 6.69943 14.5386C7.99264 14.7958 9.33308 14.6638 10.5513 14.1592C11.7694 13.6546 12.8106 12.8001 13.5432 11.7038C14.2757 10.6075 14.6667 9.31854 14.6667 8C14.6648 6.23249 13.9618 4.53792 12.7119 3.2881C11.4621 2.03828 9.76755 1.33528 8.00003 1.33334Z" fill="#181818"/>
<path d="M5.298 10.3987L4.59067 9.268L7.33333 7.55V4H8.66667V8.28866L5.298 10.3987Z" fill="#181818"/>
</svg>
