<svg width="20" height="18" viewBox="0 0 20 18" fill="none" xmlns="http://www.w3.org/2000/svg">
<path d="M18.9811 7.11477C18.4051 6.15477 17.4451 4.85077 16.1091 3.70077L18.2791 1.53079C18.5721 1.23779 18.5721 0.76275 18.2791 0.46975C17.9861 0.17675 17.5111 0.17675 17.2181 0.46975L11.6851 6.00277L11.6831 6.00375L11.6821 6.00478L1.21714 16.4697C0.924136 16.7627 0.924136 17.2378 1.21714 17.5308C1.36314 17.6768 1.55513 17.7508 1.74713 17.7508C1.93913 17.7508 2.13113 17.6778 2.27713 17.5308L4.58713 15.2207C6.17113 16.2327 7.90412 16.7508 9.74912 16.7508C14.6961 16.7508 17.6551 13.0778 18.9801 10.8858C19.6781 9.72277 19.6781 8.27877 18.9811 7.11477ZM12.4991 9.00076C12.4991 10.5178 11.2651 11.7508 9.74912 11.7508C9.27112 11.7508 8.82013 11.6187 8.41813 11.3927L12.1401 7.67074C12.3671 8.07174 12.4991 8.52276 12.4991 9.00076ZM17.6971 10.1128C16.5371 12.0318 13.9621 15.2508 9.75113 15.2508C8.31013 15.2508 6.95314 14.8557 5.69214 14.1177L7.32712 12.4828C8.03012 12.9778 8.86514 13.2508 9.74814 13.2508C12.0911 13.2508 13.9981 11.3438 13.9981 9.00076C13.9981 8.11776 13.7251 7.28274 13.2301 6.57974L15.0471 4.76278C16.2791 5.80078 17.1661 7.00477 17.6951 7.88577C18.1061 8.57377 18.1061 9.42776 17.6971 10.1128ZM1.88013 12.7837C1.38213 12.1937 0.925129 11.5558 0.522129 10.8878C-0.173871 9.72178 -0.173878 8.27775 0.521122 7.11575C1.84612 4.92375 4.80514 1.25076 9.75214 1.25076C10.7081 1.25076 11.6321 1.38875 12.5771 1.67275C12.9731 1.79175 13.1991 2.20977 13.0791 2.60677C12.9601 3.00377 12.5421 3.22873 12.1451 3.10873C11.3421 2.86773 10.5591 2.75076 9.75113 2.75076C5.54113 2.75076 2.96512 5.96976 1.80512 7.88876C1.39612 8.57376 1.39613 9.42775 1.80713 10.1157C2.16813 10.7137 2.57813 11.2868 3.02613 11.8168C3.29313 12.1328 3.25314 12.6068 2.93714 12.8738C2.79614 12.9928 2.62514 13.0508 2.45414 13.0508C2.24014 13.0508 2.02813 12.9597 1.88013 12.7837ZM9.94013 5.43575C10.0031 5.84475 9.72314 6.22773 9.31314 6.29073C8.15314 6.46973 7.21913 7.40474 7.04013 8.56374C6.98313 8.93474 6.66414 9.19973 6.30014 9.19973C6.26214 9.19973 6.22312 9.19676 6.18512 9.19076C5.77512 9.12776 5.49514 8.74478 5.55814 8.33578C5.84014 6.50778 7.25815 5.09074 9.08515 4.80874C9.48815 4.74674 9.87613 5.02675 9.94013 5.43575Z" fill="#BBBBBB"/>
</svg>
