<svg width="234" height="42" viewBox="0 0 234 42" fill="none" xmlns="http://www.w3.org/2000/svg">
<g clip-path="url(#clip0_15803_16093)">
<path d="M41.9792 21.4355H34.3152C34.1629 26.0289 31.7013 30.0217 28.0469 32.3056L32.2173 38.7262C37.978 35.0887 41.8269 28.7189 41.9792 21.4355Z" fill="#ED87C0"/>
<path d="M41.9845 21.4355C41.8407 28.7105 37.9917 35.0887 32.231 38.7346L30.7422 36.4422C35.7754 33.1262 39.286 27.7038 40.0304 21.4355H41.9845Z" fill="#D870AD"/>
<path d="M20.9935 34.3443C17.2207 34.3443 13.8201 32.7708 11.3923 30.25L5.75 35.427C9.57357 39.4705 14.9875 41.9998 20.9935 41.9998C25.1301 41.9998 28.979 40.7986 32.2273 38.7346L28.057 32.314C26.0098 33.5914 23.5989 34.3443 20.9935 34.3443Z" fill="#49CFAE"/>
<path d="M32.2352 38.7347C28.9868 40.7987 25.1379 41.9999 21.0013 41.9999C14.9953 41.9999 9.58138 39.4706 5.75781 35.4271L7.08591 34.209C10.6642 37.0428 15.1814 38.7347 20.0962 38.7347C23.8605 38.7347 27.3965 37.7449 30.4503 36.0023L32.2352 38.7347Z" fill="#36BB9B"/>
<path d="M20.994 7.65559V0C20.994 0 20.994 0 20.9856 0C14.1336 0 8.04296 3.29063 4.21094 8.38308L10.2677 13.0949C12.6955 9.80423 16.5868 7.65559 20.994 7.65559Z" fill="#FB6E52"/>
<path d="M7.65559 20.9955C7.65559 18.0263 8.63686 15.3025 10.2695 13.0861L4.21269 8.38281C1.56495 11.8934 0 16.2668 0 20.9955C0 26.587 2.19094 31.6626 5.75227 35.4269L11.3946 30.2499C9.0852 27.8475 7.65559 24.5991 7.65559 20.9955Z" fill="#FFCE54"/>
<g opacity="0.15">
<path d="M1.31428 21.3256C1.12818 21.3256 0.984375 21.1818 0.984375 20.9957C0.984375 17.096 2.10945 13.3232 4.21579 10.0834C4.31731 9.93109 4.52033 9.89725 4.67259 9.98184C4.82486 10.0834 4.86715 10.2864 4.7741 10.4386C2.72697 13.577 1.64419 17.2229 1.64419 20.9957C1.64419 21.1818 1.49193 21.3256 1.31428 21.3256Z" fill="white"/>
</g>
<path d="M41.2482 3.73899C41.2482 4.68642 40.8845 5.64231 40.157 6.3698L36.6125 9.90576L31.3594 4.64412L34.8953 1.10817C36.3419 -0.346812 38.702 -0.355271 40.157 1.09971C40.8845 1.82721 41.2482 2.7831 41.2482 3.73899Z" fill="#646D78"/>
<path d="M41.2482 3.73922C41.2482 4.68666 40.8845 5.64255 40.157 6.37004L36.6125 9.90599L31.3594 4.64436L32.0615 3.94225L33.0681 4.95735C35.0222 6.91143 38.2029 6.91143 40.157 4.95735C40.6983 4.41596 41.0452 3.73922 41.1805 3.03711C41.2228 3.27397 41.2482 3.51083 41.2482 3.73922Z" fill="#434A54"/>
<path d="M34.5543 12.1898L22.5338 24.2188C21.7132 25.0478 20.6135 25.5469 19.4546 25.64C18.2872 25.733 17.196 26.2321 16.3755 27.0611L15.3688 28.0678C14.6498 28.7783 13.4486 28.6938 12.8564 27.8055C12.425 27.1542 12.5604 26.2744 13.1187 25.7161L14.0661 24.7687C14.8951 23.9397 15.3942 22.8484 15.4872 21.6811C15.5718 20.5137 16.0794 19.4225 16.9084 18.5935L23.1174 12.3759L28.9289 6.56445L34.5543 12.1898Z" fill="#E7E9EE"/>
<path d="M37.1015 12.5107C36.7969 12.8152 36.3909 12.9675 35.9933 12.9675C35.5957 12.9675 35.1897 12.8152 34.8851 12.5107L28.6084 6.23397C27.9993 5.62491 27.9909 4.62672 28.6084 4.0092C28.9129 3.70467 29.319 3.5524 29.725 3.54395C30.1226 3.54395 30.5287 3.70467 30.8332 4.00074L37.1099 10.2775C37.719 10.9035 37.7105 11.8932 37.1015 12.5107Z" fill="#646D78"/>
<path d="M37.1058 12.5114C36.8013 12.816 36.3953 12.9767 35.9892 12.9767C35.5916 12.9767 35.1856 12.816 34.8811 12.5114L28.6043 6.24316C28.2575 5.89633 28.1052 5.42262 28.1475 4.96582C28.2237 5.09271 28.3082 5.21114 28.4098 5.31265L34.6865 11.5894C34.991 11.8939 35.3971 12.0462 35.7947 12.0462C36.1922 12.0462 36.5983 11.8855 36.9113 11.5894C37.182 11.3187 37.3258 10.9888 37.3681 10.642C37.7064 11.2341 37.6134 12.0039 37.1058 12.5114Z" fill="#434A54"/>
<path d="M26.9156 19.8282L22.5338 24.2101C21.7132 25.0391 20.6135 25.5382 19.4546 25.6312C18.2872 25.7243 17.196 26.2234 16.3755 27.0524L15.3688 28.059C14.6498 28.7696 13.4486 28.685 12.8564 27.7968C12.425 27.1454 12.5604 26.2657 13.1187 25.7074L14.0661 24.7599C14.8951 23.9309 15.3942 22.8397 15.4872 21.6723C15.5718 20.505 16.0794 19.4137 16.9084 18.5847L23.1174 12.3672C23.5996 13.0524 24.0226 13.7376 23.9803 14.5497C23.938 15.2095 23.5827 15.8524 23.7181 16.4953C23.828 17.0028 24.2341 17.392 24.6655 17.6796C25.0969 17.9672 25.5791 18.1787 25.9851 18.5001C26.4081 18.8469 26.7295 19.3122 26.9156 19.8282Z" fill="#FB6E52"/>
</g>
<g clip-path="url(#clip1_15803_16093)">
<path d="M67 12C65.22 12 63.4799 12.5278 61.9999 13.5168C60.5198 14.5057 59.3663 15.9113 58.6851 17.5558C58.0039 19.2004 57.8257 21.01 58.1729 22.7558C58.5202 24.5016 59.3774 26.1053 60.636 27.364C61.8947 28.6226 63.4984 29.4798 65.2442 29.8271C66.99 30.1743 68.7996 29.9961 70.4442 29.3149C72.0887 28.6337 73.4943 27.4802 74.4832 26.0001C75.4722 24.5201 76 22.78 76 21C75.9974 18.6138 75.0484 16.3262 73.3611 14.6389C71.6738 12.9516 69.3862 12.0026 67 12V12ZM67 28.5C65.5166 28.5 64.0666 28.0601 62.8332 27.236C61.5999 26.4119 60.6386 25.2406 60.0709 23.8701C59.5033 22.4997 59.3547 20.9917 59.6441 19.5368C59.9335 18.082 60.6478 16.7456 61.6967 15.6967C62.7456 14.6478 64.082 13.9335 65.5368 13.6441C66.9917 13.3547 68.4997 13.5032 69.8701 14.0709C71.2406 14.6386 72.4119 15.5999 73.236 16.8332C74.0601 18.0666 74.5 19.5166 74.5 21C74.4978 22.9885 73.7069 24.8948 72.3009 26.3009C70.8948 27.7069 68.9885 28.4978 67 28.5Z" fill="#797979"/>
<path d="M67 19.5H66.25C66.0511 19.5 65.8603 19.579 65.7197 19.7197C65.579 19.8603 65.5 20.0511 65.5 20.25C65.5 20.4489 65.579 20.6397 65.7197 20.7803C65.8603 20.921 66.0511 21 66.25 21H67V25.5C67 25.6989 67.079 25.8897 67.2197 26.0303C67.3603 26.171 67.5511 26.25 67.75 26.25C67.9489 26.25 68.1397 26.171 68.2803 26.0303C68.421 25.8897 68.5 25.6989 68.5 25.5V21C68.5 20.6022 68.342 20.2206 68.0607 19.9393C67.7794 19.658 67.3978 19.5 67 19.5Z" fill="#797979"/>
<path d="M67 18C67.6213 18 68.125 17.4963 68.125 16.875C68.125 16.2537 67.6213 15.75 67 15.75C66.3787 15.75 65.875 16.2537 65.875 16.875C65.875 17.4963 66.3787 18 67 18Z" fill="#797979"/>
</g>
<defs>
<clipPath id="clip0_15803_16093">
<rect width="41.9831" height="42" fill="white"/>
</clipPath>
<clipPath id="clip1_15803_16093">
<rect width="18" height="18" fill="white" transform="translate(58 12)"/>
</clipPath>
</defs>
</svg>
