<svg width="30" height="30" viewBox="0 0 30 30" fill="none" xmlns="http://www.w3.org/2000/svg">
<path d="M10.623 13.4618H2.8125C1.25977 13.4618 0 12.1996 0 10.6438V2.818C0 1.26223 1.25977 0 2.8125 0H10.623C12.1758 0 13.4355 1.26223 13.4355 2.818V10.6438C13.4355 12.1996 12.1758 13.4618 10.623 13.4618ZM27.1875 13.4618H19.377C17.8242 13.4618 16.5645 12.1996 16.5645 10.6438V2.818C16.5645 1.26223 17.8242 0 19.377 0H27.1875C28.7402 0 30 1.26223 30 2.818V10.6438C30 12.1996 28.7402 13.4618 27.1875 13.4618ZM10.623 30H2.8125C1.25977 30 0 28.7378 0 27.182V19.3562C0 17.8004 1.25977 16.5382 2.8125 16.5382H10.623C12.1758 16.5382 13.4355 17.8004 13.4355 19.3562V27.182C13.4355 28.7378 12.1758 30 10.623 30ZM27.1875 30H19.377C17.8242 30 16.5645 28.7378 16.5645 27.182V19.3562C16.5645 17.8004 17.8242 16.5382 19.377 16.5382H27.1875C28.7402 16.5382 30 17.8004 30 19.3562V27.182C30 28.7378 28.7402 30 27.1875 30Z" fill="#BBBBBB"/>
</svg>
