<svg width="22" height="22" viewBox="0 0 22 22" fill="none" xmlns="http://www.w3.org/2000/svg">
<path d="M22 4.67539C22 5.28369 21.5072 5.77539 20.9 5.77539H1.1C0.4928 5.77539 0 5.28369 0 4.67539C0 4.06709 0.4928 3.57539 1.1 3.57539H5.01492C5.48902 3.57539 5.9081 3.2739 6.0588 2.8229L6.40637 1.7801C6.70667 0.880303 7.54601 0.275391 8.49311 0.275391H13.508C14.4562 0.275391 15.2955 0.880328 15.5947 1.77903L15.9423 2.82397C16.0919 3.27277 16.5121 3.57539 16.9862 3.57539H20.9C21.5072 3.57539 22 4.06709 22 4.67539ZM19.03 8.00842L18.359 18.1284C18.216 20.1524 16.522 21.7254 14.509 21.7254H7.491C5.478 21.7254 3.784 20.1524 3.641 18.1394L2.97001 8.00842C2.95901 7.86542 3.01402 7.71129 3.11302 7.60129C3.22302 7.49129 3.36601 7.42539 3.52001 7.42539H18.48C18.634 7.42539 18.777 7.49129 18.887 7.60129C18.986 7.71129 19.041 7.86542 19.03 8.00842ZM9.9 11.2754C9.9 10.6704 9.405 10.1754 8.8 10.1754C8.195 10.1754 7.7 10.6704 7.7 11.2754V16.7754C7.7 17.3804 8.195 17.8754 8.8 17.8754C9.405 17.8754 9.9 17.3804 9.9 16.7754V11.2754ZM14.3 11.2754C14.3 10.6704 13.805 10.1754 13.2 10.1754C12.595 10.1754 12.1 10.6704 12.1 11.2754V16.7754C12.1 17.3804 12.595 17.8754 13.2 17.8754C13.805 17.8754 14.3 17.3804 14.3 16.7754V11.2754Z" fill="#CDD4D8"/>
</svg>
