<svg width="25" height="25" viewBox="0 0 25 25" fill="none" xmlns="http://www.w3.org/2000/svg">
<g clipPath="url(#clip0_194_1392)">
<path d="M3.72902 24.8602H13.6731C14.2894 24.8602 14.8902 24.7048 15.434 24.4147C15.6308 24.3008 15.7033 24.047 15.5894 23.8502C15.5739 23.8243 15.5583 23.7984 15.5376 23.7777C14.5173 22.6849 13.9476 21.2451 13.9476 19.7483C13.9476 17.7906 15.4806 14.9938 17.1639 13.238C17.3192 13.0827 17.4021 12.8755 17.4021 12.658V9.6851C17.4643 7.59789 15.8225 5.86285 13.7352 5.8007C13.7145 5.8007 13.6938 5.8007 13.6731 5.8007H10.7727V1.24301C10.7727 0.559354 10.2134 0 9.52973 0H7.87238C7.18873 0 6.62938 0.559354 6.62938 1.24301V5.8007H3.72902C1.67288 5.80588 0.0051792 7.47359 0 9.52973V21.1311C0.0051792 23.1873 1.67288 24.855 3.72902 24.8602ZM6.62938 21.2347C6.62938 21.6905 6.26165 22.0634 5.80588 22.0686C5.66087 22.0686 5.51585 22.0323 5.38637 21.9598L3.92065 21.1104C3.52704 20.8825 3.39238 20.375 3.62026 19.9762C3.69277 19.8519 3.79635 19.7483 3.92065 19.6758L5.38637 18.8316C5.78517 18.6037 6.28755 18.7383 6.52061 19.1371C6.59312 19.2614 6.62938 19.4065 6.62938 19.5515V21.2347ZM12.0157 21.9391C11.6169 22.167 11.1146 22.0323 10.8815 21.6335C10.809 21.5092 10.7727 21.3642 10.7727 21.2192V19.5411C10.7727 19.0854 11.1456 18.7125 11.6014 18.7125C11.7464 18.7125 11.8914 18.7487 12.0157 18.8212L13.1241 19.4634C13.093 20.0487 13.1448 20.6339 13.2743 21.2088L12.0157 21.9391ZM7.45805 2.76569H9.94407V5.8007H7.45805V2.76569ZM3.31469 10.7261C3.31469 9.8353 4.0346 9.11539 4.92542 9.11539H12.4767C13.3675 9.11539 14.0874 9.8353 14.0874 10.7261V14.9627C14.0874 15.8535 13.3675 16.5734 12.4767 16.5734H4.92542C4.0346 16.5734 3.31469 15.8535 3.31469 14.9627V10.7261Z" fill="black"/>
<path d="M3.72902 24.8602H13.6731C14.2894 24.8602 14.8902 24.7048 15.434 24.4147C15.6308 24.3008 15.7033 24.047 15.5894 23.8502C15.5739 23.8243 15.5583 23.7984 15.5376 23.7777C14.5173 22.6849 13.9476 21.2451 13.9476 19.7483C13.9476 17.7906 15.4806 14.9938 17.1639 13.238C17.3192 13.0827 17.4021 12.8755 17.4021 12.658V9.6851C17.4643 7.59789 15.8225 5.86285 13.7352 5.8007C13.7145 5.8007 13.6938 5.8007 13.6731 5.8007H10.7727V1.24301C10.7727 0.559354 10.2134 0 9.52973 0H7.87238C7.18873 0 6.62938 0.559354 6.62938 1.24301V5.8007H3.72902C1.67288 5.80588 0.0051792 7.47359 0 9.52973V21.1311C0.0051792 23.1873 1.67288 24.855 3.72902 24.8602ZM6.62938 21.2347C6.62938 21.6905 6.26165 22.0634 5.80588 22.0686C5.66087 22.0686 5.51585 22.0323 5.38637 21.9598L3.92065 21.1104C3.52704 20.8825 3.39238 20.375 3.62026 19.9762C3.69277 19.8519 3.79635 19.7483 3.92065 19.6758L5.38637 18.8316C5.78517 18.6037 6.28755 18.7383 6.52061 19.1371C6.59312 19.2614 6.62938 19.4065 6.62938 19.5515V21.2347ZM12.0157 21.9391C11.6169 22.167 11.1146 22.0323 10.8815 21.6335C10.809 21.5092 10.7727 21.3642 10.7727 21.2192V19.5411C10.7727 19.0854 11.1456 18.7125 11.6014 18.7125C11.7464 18.7125 11.8914 18.7487 12.0157 18.8212L13.1241 19.4634C13.093 20.0487 13.1448 20.6339 13.2743 21.2088L12.0157 21.9391ZM7.45805 2.76569H9.94407V5.8007H7.45805V2.76569ZM3.31469 10.7261C3.31469 9.8353 4.0346 9.11539 4.92542 9.11539H12.4767C13.3675 9.11539 14.0874 9.8353 14.0874 10.7261V14.9627C14.0874 15.8535 13.3675 16.5734 12.4767 16.5734H4.92542C4.0346 16.5734 3.31469 15.8535 3.31469 14.9627V10.7261Z" fill="url(#paint0_linear_194_1392)"/>
<path d="M20.2352 12.4874C19.9866 12.4097 19.7225 12.4201 19.4843 12.5133C17.7544 13.1555 14.7764 17.2316 14.7764 19.7486C14.8023 22.5713 17.1122 24.8398 19.9349 24.8139C22.7213 24.788 24.9794 22.5351 25.0001 19.7486C25.0001 17.1332 21.991 13.0105 20.2352 12.4874ZM20.7169 23.2032C20.489 23.2032 20.3026 23.0167 20.3026 22.7888C20.3026 22.561 20.489 22.3745 20.7169 22.3745C20.9448 22.3745 21.1312 22.561 21.1312 22.7888C21.1312 23.0167 20.9448 23.2032 20.7169 23.2032ZM22.5141 19.7486C22.5141 19.5208 22.7005 19.3343 22.9284 19.3343C23.1563 19.3343 23.3428 19.5208 23.3428 19.7486C23.3428 20.6343 23.0061 21.4837 22.4002 22.1207C22.2396 22.2865 21.9806 22.2968 21.8097 22.1363C21.644 21.9809 21.6388 21.7167 21.7942 21.551C22.2603 21.0693 22.5141 20.4219 22.5141 19.7486Z" fill="black"/>
<path d="M20.2352 12.4874C19.9866 12.4097 19.7225 12.4201 19.4843 12.5133C17.7544 13.1555 14.7764 17.2316 14.7764 19.7486C14.8023 22.5713 17.1122 24.8398 19.9349 24.8139C22.7213 24.788 24.9794 22.5351 25.0001 19.7486C25.0001 17.1332 21.991 13.0105 20.2352 12.4874ZM20.7169 23.2032C20.489 23.2032 20.3026 23.0167 20.3026 22.7888C20.3026 22.561 20.489 22.3745 20.7169 22.3745C20.9448 22.3745 21.1312 22.561 21.1312 22.7888C21.1312 23.0167 20.9448 23.2032 20.7169 23.2032ZM22.5141 19.7486C22.5141 19.5208 22.7005 19.3343 22.9284 19.3343C23.1563 19.3343 23.3428 19.5208 23.3428 19.7486C23.3428 20.6343 23.0061 21.4837 22.4002 22.1207C22.2396 22.2865 21.9806 22.2968 21.8097 22.1363C21.644 21.9809 21.6388 21.7167 21.7942 21.551C22.2603 21.0693 22.5141 20.4219 22.5141 19.7486Z" fill="url(#paint1_linear_194_1392)"/>
</g>
<defs>
<linearGradient id="paint0_linear_194_1392" x1="0.500829" y1="1.69632e-05" x2="18.5269" y2="0.3132" gradientUnits="userSpaceOnUse">
<stop stopColor="#47D0C5"/>
<stop offset="0.995389" stopColor="#2ADBDF"/>
<stop offset="0.9998" stopColor="#4BB3E7"/>
<stop offset="0.9999" stopColor="#47DAE3"/>
</linearGradient>
<linearGradient id="paint1_linear_194_1392" x1="15.0706" y1="12.4356" x2="25.6586" y2="12.6526" gradientUnits="userSpaceOnUse">
<stop stopColor="#47D0C5"/>
<stop offset="0.995389" stopColor="#2ADBDF"/>
<stop offset="0.9998" stopColor="#4BB3E7"/>
<stop offset="0.9999" stopColor="#47DAE3"/>
</linearGradient>
<clipPath id="clip0_194_1392">
<rect width="25" height="24.8602" fill="white"/>
</clipPath>
</defs>
</svg>
