<svg width="25" height="25" viewBox="0 0 25 25" fill="none" xmlns="http://www.w3.org/2000/svg">
<path fillRule="evenodd" clipRule="evenodd" d="M12.5 0C5.5957 0 0 5.5957 0 12.5C0 19.4043 5.5957 25 12.5 25C19.4043 25 25 19.4043 25 12.5C25 5.5957 19.4043 0 12.5 0ZM12.1232 17.6272L18.6199 11.2009C19.1267 10.6997 19.1267 9.87719 18.6199 9.37594C18.1132 8.87469 17.2816 8.87469 16.7749 9.37594L11.2006 14.9026L8.22512 11.9465C7.71837 11.4452 6.88681 11.4452 6.38006 11.9465C5.87331 12.4477 5.87331 13.2702 6.38006 13.7714L10.2781 17.6272C10.538 17.8714 10.8628 18 11.2006 18C11.5385 18 11.8633 17.8714 12.1232 17.6272Z" fill="#5936F1"/>
</svg>
