<svg width="25" height="25" viewBox="0 0 25 25" fill="none" xmlns="http://www.w3.org/2000/svg">
<path fillRule="evenodd" clipRule="evenodd" d="M12.5 0C5.5957 0 0 5.5957 0 12.5C0 19.4043 5.5957 25 12.5 25C19.4043 25 25 19.4043 25 12.5C25 5.5957 19.4043 0 12.5 0ZM8 7C7.44772 7 7 7.41041 7 7.91667V17.0833C7 17.5896 7.44772 18 8 18H9C9.55228 18 10 17.5896 10 17.0833V7.91667C10 7.41041 9.55228 7 9 7H8ZM16 7C15.4477 7 15 7.41041 15 7.91667V17.0833C15 17.5896 15.4477 18 16 18H17C17.5523 18 18 17.5896 18 17.0833V7.91667C18 7.41041 17.5523 7 17 7H16Z" fill="#FFA009"/>
</svg>
