<svg width="23" height="22" viewBox="0 0 23 22" fill="none" xmlns="http://www.w3.org/2000/svg">
<path d="M18.0724 10.9999C17.6396 10.9999 17.285 11.3498 17.285 11.7873V19.647C17.285 20.0798 16.9351 20.4344 16.4977 20.4344H2.35747C1.92465 20.4344 1.57011 20.0844 1.57011 19.647V3.9275C1.57011 3.49469 1.92005 3.14014 2.35747 3.14014H11.7873C12.2202 3.14014 12.5747 2.79021 12.5747 2.35279C12.5747 1.91537 12.2248 1.56543 11.7873 1.56543H2.35747C1.05441 1.57003 0 2.62905 0 3.9275V19.6424C0 20.9455 1.05441 21.9999 2.35747 21.9999H16.5023C17.8053 21.9999 18.8597 20.9455 18.8597 19.6424V11.7873C18.8597 11.3544 18.5098 10.9999 18.0724 10.9999Z" fill="#CDD4D8"/>
<path d="M21.1236 0.879495C20.5618 0.317755 19.7975 4.936e-05 18.9963 4.936e-05C18.1997 -0.00455507 17.4308 0.31315 16.8691 0.879495L6.51831 11.2302C6.43082 11.3177 6.36636 11.4236 6.32953 11.5387L4.75942 16.2537C4.62128 16.6635 4.8469 17.1101 5.25669 17.2482C5.33497 17.2759 5.42245 17.2897 5.50533 17.2897C5.58821 17.2897 5.6757 17.2759 5.75397 17.2482L10.4689 15.6781C10.584 15.6413 10.6899 15.5722 10.7774 15.4893L21.1282 5.13859C22.2977 3.95986 22.3023 2.05823 21.1236 0.879495Z" fill="#CDD4D8"/>
</svg>
