<svg width="22" height="22" viewBox="0 0 22 22" fill="none" xmlns="http://www.w3.org/2000/svg">
<path d="M0 5C0 2.23858 2.23858 0 5 0H17C19.7614 0 22 2.23858 22 5V17C22 19.7614 19.7614 22 17 22H5C2.23858 22 0 19.7614 0 17V5Z" fill="url(#paint0_linear_7641_12649)"/>
<path fill-rule="evenodd" clipRule="evenodd" d="M17.4529 6H4.54708C4.46954 6 4.392 6.0182 4.32308 6.05005L10.6338 12.2375C10.8406 12.4468 11.168 12.4468 11.3748 12.2375L17.6855 6.05005C17.608 6.0182 17.5348 6 17.4529 6ZM17.9354 6.30027C17.9785 6.38671 18 6.47771 18 6.5778V15.4313C18 15.5041 17.9871 15.5769 17.9612 15.6451L13.184 10.9591L17.9354 6.30027ZM4.54708 16C4.448 16 4.34892 15.9727 4.26708 15.9181L9.07446 11.2047L10.4012 12.5059C10.7415 12.838 11.2714 12.838 11.6117 12.5059L12.9385 11.2047L17.7458 15.9181C17.6597 15.9727 17.5649 16 17.4658 16H4.54708ZM4 15.4268V6.57325C4 6.47771 4.02154 6.38217 4.06892 6.29572L8.82031 10.9545L4.03877 15.6406C4.01292 15.5723 4 15.4995 4 15.4268Z" fill="white"/>
<defs>
<linearGradient id="paint0_linear_7641_12649" x1="11" y1="0" x2="11" y2="22" gradientUnits="userSpaceOnUse">
<stop stop-color="#1E52EE"/>
<stop offset="1" stop-color="#19E4FF"/>
</linearGradient>
</defs>
</svg>
