<svg width="15" height="15" viewBox="0 0 15 15" fill="none" xmlns="http://www.w3.org/2000/svg">
<g clip-path="url(#clip0_18095_15617)">
<path d="M7.52749 2.06836C4.55123 2.06836 2.14453 4.47506 2.14453 7.45131C2.14453 10.4276 4.55123 12.8343 7.52749 12.8343C10.5037 12.8343 12.907 10.4276 12.907 7.45131C12.907 4.47506 10.5037 2.06836 7.52749 2.06836ZM4.78739 4.0479C5.0166 5.38148 5.22497 6.56573 5.26317 7.82291C5.26317 8.06601 5.23539 8.28828 5.17635 8.4897C5.12078 8.68766 5.00618 8.95854 4.84295 9.29541L4.59638 9.19817C4.66236 8.85088 4.69362 8.56611 4.69362 8.34731C4.68667 7.34713 4.23867 5.61764 4.30119 5.21826C4.38106 4.79456 4.61374 4.39866 4.78739 4.0479ZM9.90988 5.1488C10.6947 5.8017 10.8684 6.74285 10.8684 7.70136V9.01411H9.01735C8.58671 9.01758 8.42001 8.73628 8.43043 8.44455C8.42349 8.16325 8.46863 7.89237 8.50336 7.63538L8.65964 7.62843C8.71868 7.87848 8.91664 7.89931 9.07639 7.90279H10.4829C10.3996 7.22558 10.1877 6.74979 9.62163 6.42682L9.90988 5.1488ZM6.74956 8.99674C7.11769 8.99674 7.41983 9.27804 7.41983 9.6288C7.41983 9.97609 7.12116 10.2574 6.75304 10.2574C6.38491 10.2574 6.08624 9.97609 6.08624 9.6288C6.0793 9.27804 6.37796 8.99674 6.74956 8.99674ZM4.90199 9.76772C5.09995 9.7573 5.11384 9.96567 5.06869 10.0664C5.05827 10.0976 5.03396 10.1428 4.99576 10.2053C4.86032 10.1358 4.76655 10.1046 4.71793 10.1046C4.61374 10.0872 4.52692 10.1497 4.48178 10.2053C4.56512 10.3546 4.79086 10.4623 4.96103 10.4797C5.08258 10.4658 5.16246 10.438 5.25623 10.4171C5.24581 10.5873 5.12078 10.6498 5.02007 10.6846L4.13796 10.9554C4.19005 10.7783 4.34286 10.7158 4.49219 10.6394C4.34286 10.5977 4.28729 10.4727 4.27688 10.3789C4.28382 10.0699 4.6068 9.78161 4.90199 9.76772Z" fill="#FFA009"/>
<path d="M7.49989 0.00195312C3.35328 0.00195312 0.00195312 3.35328 0.00195312 7.49989C0.00195312 11.6465 3.35328 15.0013 7.49989 15.0013C11.6465 15.0013 15.0013 11.6465 15.0013 7.49989C15.0013 3.35328 11.643 0.00195312 7.49989 0.00195312ZM4.48196 1.50223C4.53753 1.60989 4.49932 1.74186 4.39167 1.8009C3.30118 2.39476 2.40518 3.29771 1.80785 4.38472C1.74881 4.49585 1.61337 4.53405 1.50571 4.47501C1.39805 4.41598 1.35985 4.27706 1.41889 4.1694C2.05789 3.00599 3.01641 2.044 4.17982 1.40847C4.3361 1.33901 4.44376 1.42236 4.48196 1.50223ZM7.52767 1.50918C10.8026 1.50918 13.4663 4.17287 13.4663 7.44779C13.4663 10.7227 10.8026 13.3864 7.52767 13.3864C4.25275 13.3864 1.58906 10.7227 1.58906 7.44779C1.58906 4.17287 4.25275 1.50918 7.52767 1.50918ZM13.508 10.5004C13.6156 10.5595 13.6538 10.6915 13.5983 10.7991C12.9662 11.966 12.0077 12.9315 10.8477 13.5705C10.7401 13.6295 10.6081 13.5878 10.5491 13.4836C10.49 13.376 10.5282 13.2405 10.6359 13.1815C11.7229 12.5807 12.6189 11.6812 13.2128 10.5873C13.251 10.5178 13.31 10.4866 13.369 10.4761C13.4211 10.4692 13.4732 10.4831 13.508 10.5004Z" fill="#FFA009"/>
</g>
<defs>
<clipPath id="clip0_18095_15617">
<rect width="15" height="15" fill="white"/>
</clipPath>
</defs>
</svg>
