<svg width="22" height="22" viewBox="0 0 22 22" fill="none" xmlns="http://www.w3.org/2000/svg">
<path d="M21.9314 9.73232C21.8842 9.62061 21.8197 9.51748 21.7338 9.43154L18.9838 6.68154C18.6271 6.3249 18.0471 6.3249 17.6861 6.68154C17.3295 7.03818 17.3295 7.61826 17.6861 7.9792L18.8721 9.16514H13.7502C13.2432 9.16514 12.835 9.57764 12.835 10.0804C12.835 10.5831 13.2432 10.9999 13.7502 10.9999H18.8721L17.6861 12.1858C17.3295 12.5425 17.3295 13.1226 17.6861 13.4835C17.8666 13.664 18.0986 13.7542 18.335 13.7542C18.5713 13.7542 18.8033 13.664 18.9838 13.4835L21.7338 10.7335C21.8197 10.6476 21.8842 10.5487 21.9314 10.4327C22.0217 10.2093 22.0217 9.95576 21.9314 9.73232Z" fill="#CDD4D8"/>
<path d="M15.5848 12.8348C15.0777 12.8348 14.6695 13.2473 14.6695 13.75V18.3348H11V3.66523C11 3.26133 10.7336 2.90469 10.3469 2.78867L7.16289 1.83477H14.6652V6.41953C14.6652 6.92656 15.0734 7.33477 15.5805 7.33477C16.0875 7.33477 16.4957 6.92227 16.4957 6.41953V0.919531C16.5 0.4125 16.0918 0 15.5848 0H0.915234C0.880859 0 0.850781 0.0128906 0.820703 0.0171875C0.777734 0.0214844 0.739063 0.0300781 0.696094 0.0386719C0.601563 0.0644531 0.515625 0.103125 0.433984 0.154687C0.4125 0.167578 0.386719 0.167578 0.369531 0.180469C0.360938 0.189062 0.360938 0.197656 0.352344 0.201953C0.253516 0.279297 0.167578 0.378125 0.107422 0.489844C0.0945313 0.515625 0.0902344 0.541406 0.0816406 0.567187C0.0515625 0.635938 0.0214844 0.704688 0.00859375 0.782031C0.00429688 0.807813 0.0128906 0.833594 0.0128906 0.863672C0.0128906 0.880859 0 0.898047 0 0.915234V19.25C0 19.6883 0.309375 20.0621 0.739063 20.148L9.9043 21.9828C9.96445 21.9957 10.0246 22 10.0848 22C10.2953 22 10.5016 21.927 10.6648 21.7938C10.8754 21.6176 11 21.3598 11 21.0848V20.1695H15.5848C16.0918 20.1695 16.5 19.757 16.5 19.2543V13.75C16.5 13.243 16.0918 12.8348 15.5848 12.8348Z" fill="#CDD4D8"/>
</svg>
