<svg width="16" height="19" viewBox="0 0 16 19" fill="none" xmlns="http://www.w3.org/2000/svg">
<path fillRule="evenodd" clipRule="evenodd" d="M16 3.56322V15.5614C16 16.9813 14.9255 18.1324 13.6 18.1324H2.4C1.07452 18.1324 0 16.9813 0 15.5614V3.56322C0 2.14328 1.07452 0.992188 2.4 0.992188H13.6C14.9255 0.992188 16 2.14328 16 3.56322ZM7.20039 4.41992H12.0004C12.4422 4.41992 12.8004 4.80362 12.8004 5.27693C12.8004 5.75025 12.4422 6.13394 12.0004 6.13394H7.20039C6.75856 6.13394 6.40039 5.75025 6.40039 5.27693C6.40039 4.80362 6.75856 4.41992 7.20039 4.41992ZM4.79923 5.27735C4.79797 5.16536 4.77623 5.05472 4.73523 4.95169C4.69472 4.84783 4.6379 4.75218 4.56723 4.66888C4.48947 4.59318 4.40018 4.53231 4.30323 4.4889C4.00531 4.3547 3.66128 4.4257 3.43123 4.66888C3.36057 4.75218 3.30375 4.84783 3.26323 4.95169C3.22224 5.05472 3.2005 5.16536 3.19923 5.27735C3.198 5.50515 3.28148 5.7241 3.43123 5.88583C3.58454 6.04244 3.78742 6.13121 3.99923 6.13436C4.10417 6.13726 4.20829 6.11378 4.30323 6.0658C4.40018 6.0224 4.48947 5.96153 4.56723 5.88583C4.71342 5.7216 4.79629 5.50426 4.79923 5.27735ZM4.30323 8.77406C4.00531 8.63986 3.66128 8.71086 3.43123 8.95403C3.35715 9.03448 3.29988 9.13088 3.26323 9.23685C3.22224 9.33988 3.2005 9.45052 3.19923 9.56251C3.198 9.79031 3.28148 10.0093 3.43123 10.171C3.58454 10.3276 3.78742 10.4164 3.99923 10.4195C4.10377 10.4182 4.20705 10.3949 4.30323 10.351C4.40018 10.3076 4.48947 10.2467 4.56723 10.171L4.66323 10.0424C4.69351 9.99466 4.71772 9.94279 4.73523 9.88817C4.76387 9.8406 4.78546 9.78856 4.79923 9.73391C4.80316 9.67686 4.80316 9.61957 4.79923 9.56251C4.79629 9.3356 4.71342 9.11827 4.56723 8.95403C4.48947 8.87833 4.40018 8.81746 4.30323 8.77406ZM7.20039 8.70508H12.0004C12.4422 8.70508 12.8004 9.08877 12.8004 9.56209C12.8004 10.0354 12.4422 10.4191 12.0004 10.4191H7.20039C6.75856 10.4191 6.40039 10.0354 6.40039 9.56209C6.40039 9.08877 6.75856 8.70508 7.20039 8.70508ZM4.5674 13.2392C4.48964 13.1635 4.40035 13.1026 4.3034 13.0592C4.00549 12.925 3.66145 12.996 3.4314 13.2392C3.35857 13.3207 3.30148 13.4168 3.2634 13.522C3.17782 13.7294 3.17782 13.9659 3.2634 14.1733C3.30148 14.2785 3.35857 14.3746 3.4314 14.4561C3.58471 14.6127 3.78759 14.7015 3.9994 14.7047C4.10395 14.7033 4.20723 14.68 4.3034 14.6361C4.40035 14.5927 4.48964 14.5318 4.5674 14.4561C4.64024 14.3746 4.69733 14.2785 4.7354 14.1733C4.82099 13.9659 4.82099 13.7294 4.7354 13.522C4.69733 13.4168 4.64024 13.3207 4.5674 13.2392ZM7.20039 12.9902H12.0004C12.4422 12.9902 12.8004 13.3739 12.8004 13.8472C12.8004 14.3206 12.4422 14.7043 12.0004 14.7043H7.20039C6.75856 14.7043 6.40039 14.3206 6.40039 13.8472C6.40039 13.3739 6.75856 12.9902 7.20039 12.9902ZM13.5996 2.70703C14.0414 2.70703 14.3996 3.09073 14.3996 3.56404V15.5622C14.3996 16.0355 14.0414 16.4192 13.5996 16.4192H2.39961C1.95778 16.4192 1.59961 16.0355 1.59961 15.5622V3.56404C1.59961 3.09073 1.95778 2.70703 2.39961 2.70703H13.5996Z" fill="#02BF90"/>
</svg>
