<svg width="38" height="38" viewBox="0 0 38 38" fill="none" xmlns="http://www.w3.org/2000/svg">
<path d="M22.5626 0H4.35665C1.94454 0 0 1.94454 0 4.35665V28.9009C0 31.3056 1.94454 33.2501 4.35665 33.2501H17.2633C15.9348 31.1423 15.0442 28.6559 15.0442 25.8059V21.9391C14.8067 22.0801 14.5395 22.1618 14.25 22.1618H6.33088C5.46252 22.1618 4.75001 21.4493 4.75001 20.5809C4.75001 19.7126 5.46252 19.0001 6.33088 19.0001H14.25C14.5543 19.0001 14.8215 19.0817 15.059 19.2227C15.1258 17.8794 15.7567 16.6399 16.7512 15.8309H6.33088C5.46252 15.8309 4.75001 15.1184 4.75001 14.25C4.75001 13.3817 5.46252 12.6692 6.33088 12.6692H20.5809C21.2489 12.6692 21.813 13.0774 22.0505 13.6637L26.563 12.1274C26.6743 12.0828 26.7856 12.0457 26.9118 12.0309V4.35665C26.9192 1.94454 24.9673 0 22.5626 0ZM12.6692 9.50003H6.33088C5.46252 9.50003 4.75001 8.78753 4.75001 7.91916C4.75001 7.0508 5.46252 6.3383 6.33088 6.3383H12.6618C13.5301 6.3383 14.2426 7.0508 14.2426 7.91916C14.2426 8.78753 13.5375 9.50003 12.6692 9.50003Z" fill="#3D96E7"/>
<path d="M36.9243 17.9535L28.6118 15.1258C28.2778 15.0144 27.9216 15.0144 27.5876 15.1258L19.275 17.9535C18.6368 18.1687 18.1989 18.7773 18.1989 19.4527V25.8133C18.1989 33.8364 27.0977 37.7106 27.4762 37.8739C27.6766 37.9555 27.8844 38 28.0997 38C28.3075 38 28.5227 37.9555 28.7231 37.8739C29.1016 37.7106 38.0005 33.8364 38.0005 25.8133V19.4527C38.0005 18.7699 37.57 18.1687 36.9243 17.9535ZM33.7255 23.9059L28.9755 30.2367C28.7009 30.6004 28.2778 30.8305 27.8177 30.8676C27.7805 30.8676 27.7434 30.875 27.7063 30.875C27.2833 30.875 26.8825 30.7117 26.5856 30.4074L23.4165 27.2383C22.8004 26.6223 22.8004 25.6203 23.4165 24.9969C24.0325 24.3809 25.0344 24.3809 25.6579 24.9969L27.5356 26.8746L31.1872 21.9984C31.7141 21.3008 32.7013 21.1598 33.3989 21.6793C34.1114 22.2137 34.2524 23.2082 33.7255 23.9059Z" fill="#3D96E7"/>
</svg>
