<svg width="38" height="38" viewBox="0 0 38 38" fill="none" xmlns="http://www.w3.org/2000/svg">
<path d="M28.9082 6.48672C28.9082 5.59609 28.5594 4.75742 27.9285 4.12656L24.7816 0.979688C24.1582 0.35625 23.275 0 22.3992 0H22.2063V6.67969H28.9082V6.48672Z" fill="#3D96E7"/>
<path d="M20.3285 22.9707C20.5437 22.325 20.9148 21.7238 21.3973 21.234L28.9379 13.7305V8.90625H21.1152C20.4992 8.90625 20.0391 8.40898 20.0391 7.79297V0H3.33984C1.49922 0 0 1.49922 0 3.33984V34.6602C0 36.5008 1.49922 38 3.33984 38H25.5684C27.409 38 28.9379 36.5008 28.9379 34.6602V26.3477L27.7133 27.5426C27.216 28.0324 26.6371 28.3887 25.984 28.6113L22.4438 29.7914L21.902 29.8211C21.0113 29.8211 20.1652 29.3906 19.6457 28.6633C19.1262 27.9434 18.9852 27.0008 19.2672 26.1547L20.3285 22.9707ZM5.56641 20.0391H16.6621C17.2781 20.0391 17.7754 20.5363 17.7754 21.1523C17.7754 21.7684 17.2781 22.2656 16.6621 22.2656H5.56641C4.95039 22.2656 4.45312 21.7684 4.45312 21.1523C4.45312 20.5363 4.95039 20.0391 5.56641 20.0391ZM4.45312 16.6992C4.45312 16.0832 4.95039 15.5859 5.56641 15.5859H16.6621C17.2781 15.5859 17.7754 16.0832 17.7754 16.6992C17.7754 17.3152 17.2781 17.8125 16.6621 17.8125H5.56641C4.95039 17.8125 4.45312 17.3152 4.45312 16.6992ZM4.45312 25.6055C4.45312 24.9895 4.95039 24.4922 5.56641 24.4922H16.6621C17.2781 24.4922 17.7754 24.9895 17.7754 25.6055C17.7754 26.2215 17.2781 26.7188 16.6621 26.7188H5.56641C4.95039 26.7188 4.45312 26.2215 4.45312 25.6055ZM21.1152 31.1719C21.7313 31.1719 22.2285 31.6691 22.2285 32.2852C22.2285 32.9012 21.7313 33.3984 21.1152 33.3984H14.4355C13.8195 33.3984 13.3223 32.9012 13.3223 32.2852C13.3223 31.6691 13.8195 31.1719 14.4355 31.1719H21.1152ZM5.56641 13.3594C4.95039 13.3594 4.45312 12.8621 4.45312 12.2461C4.45312 11.6301 4.95039 11.1328 5.56641 11.1328H21.1152C21.7313 11.1328 22.2285 11.6301 22.2285 12.2461C22.2285 12.8621 21.7313 13.3594 21.1152 13.3594H5.56641Z" fill="#3D96E7"/>
<path d="M22.3473 23.9578L21.3824 26.8672C21.234 27.3051 21.6496 27.7133 22.0875 27.5723L24.9895 26.6L22.3473 23.9578Z" fill="#3D96E7"/>
<path d="M30.9937 14.7918L23.6609 22.1246L26.8227 25.2863C28.4777 23.6313 31.7063 20.4027 34.1555 17.9535L30.9937 14.7918Z" fill="#3D96E7"/>
<path d="M37.3469 11.6004C36.9535 11.207 36.382 10.9844 35.766 10.9844C35.15 10.9844 34.5785 11.207 34.1852 11.6078L32.5672 13.2258L35.7289 16.3875C36.6121 15.5043 37.2281 14.8883 37.3469 14.7695C38.2152 13.8938 38.2152 12.4688 37.3469 11.6004Z" fill="#3D96E7"/>
<path d="M37.3543 14.7547L37.3617 14.7473C37.3617 14.7473 37.3617 14.7547 37.3543 14.7547Z" fill="#3D96E7"/>
<path d="M37.3617 14.7473C37.3691 14.7398 37.3691 14.7398 37.3617 14.7473V14.7473Z" fill="#3D96E7"/>
</svg>
