<svg width="39" height="30" viewBox="0 0 39 30" fill="none" xmlns="http://www.w3.org/2000/svg">
<g id="Vector">
<path fill-rule="evenodd" clip-rule="evenodd" d="M20.2836 17.883L16.9866 17.0549C16.5612 16.9486 16.0901 17.1005 15.8091 17.4728L13.3097 20.7622L10.8027 17.4652C10.5368 17.0929 10.0658 16.903 9.59483 17.0169L5.65206 18.0273C2.29425 18.8934 0 21.841 0 25.3127V28.8605C0 29.491 0.50899 30 1.13953 30H20.4735C20.352 29.6429 20.2836 29.2631 20.2836 28.868V17.883Z" fill="#3D96E7"/>
<path fill-rule="evenodd" clip-rule="evenodd" d="M31.2459 15.999L31.9372 16.3484V13.6743H29.5366V16.3484L30.2203 16.0066C30.5318 15.847 30.9116 15.8319 31.2459 15.999Z" fill="#3D96E7"/>
<path fill-rule="evenodd" clip-rule="evenodd" d="M37.7615 13.6743H34.2213V18.1945C34.2213 18.825 33.7123 19.334 33.0818 19.334C32.8615 19.334 32.6564 19.2732 32.4816 19.1593L30.742 18.2856L28.9111 19.2049C28.1514 19.5847 27.2702 19.0149 27.2702 18.1869L27.2626 13.6668H23.7073C23.0767 13.6668 22.5677 14.1757 22.5677 14.8063V28.8605C22.5677 29.491 23.0767 30 23.7073 30H37.7615C38.392 30 38.901 29.491 38.901 28.8605V14.8139C38.901 14.1833 38.392 13.6743 37.7615 13.6743Z" fill="#3D96E7"/>
<path fill-rule="evenodd" clip-rule="evenodd" d="M20.9876 7.67283C20.9876 11.9119 17.5538 15.3457 13.3148 15.3457C9.07572 15.3457 5.64193 11.9119 5.64193 7.67283C5.64193 3.43378 9.07572 0 13.3148 0C17.5538 0 20.9876 3.43378 20.9876 7.67283Z" fill="#3D96E7"/>
</g>
</svg>
