<svg width="31" height="30" viewBox="0 0 31 30" fill="none" xmlns="http://www.w3.org/2000/svg">
<path d="M28.0568 15.9376C28.1555 15.8389 28.2851 15.7834 28.4207 15.7895C28.7106 15.7895 28.945 16.0239 28.945 16.3138V26.9162C28.7723 26.8668 28.5996 26.8422 28.4207 26.8422H27.8965V16.3138C27.8965 16.1719 27.952 16.0362 28.0568 15.9376Z" fill="#BBBBBB"/>
<path d="M9.99811 19.4707V24.7318H2.63379V19.4707H8.42533H9.99811Z" fill="#BBBBBB"/>
<path d="M2.63379 25.7871H26.8423V26.8418H2.63379V25.7871Z" fill="#BBBBBB"/>
<path d="M11.577 18.416H26.8422V24.7318H11.0527V18.9403C11.0527 18.6504 11.2871 18.416 11.577 18.416Z" fill="#BBBBBB"/>
<path d="M7.37064 16.3145C7.66052 16.3145 7.8949 16.5488 7.8949 16.8387V18.4177H2.63379V16.3145H7.37064Z" fill="#BBBBBB"/>
<path d="M0.684776 12.2559C0.783461 12.1572 0.912984 12.1017 1.04867 12.1079C1.33856 12.1079 1.57294 12.3423 1.57294 12.6321V26.8427H1.04867C0.869809 26.8427 0.690944 26.8674 0.524414 26.9167V12.626C0.524414 12.4841 0.586092 12.3484 0.684776 12.2559Z" fill="#BBBBBB"/>
<path d="M1.05469 30C1.63718 30 2.10938 29.5278 2.10938 28.9453C2.10938 28.3628 1.63718 27.8906 1.05469 27.8906C0.472201 27.8906 0 28.3628 0 28.9453C0 29.5278 0.472201 30 1.05469 30Z" fill="#BBBBBB"/>
<path d="M3.15805 28.9453C3.15805 28.5752 3.0532 28.2113 2.86816 27.8906H26.6141C26.4229 28.2113 26.3242 28.5752 26.3242 28.9453H3.15805Z" fill="#BBBBBB"/>
<path d="M28.4209 30C29.0034 30 29.4756 29.5278 29.4756 28.9453C29.4756 28.3628 29.0034 27.8906 28.4209 27.8906C27.8384 27.8906 27.3662 28.3628 27.3662 28.9453C27.3662 29.5278 27.8384 30 28.4209 30Z" fill="#BBBBBB"/>
<path d="M29.5809 8.83225L22.0809 15.4688C21.5628 15.9252 20.7733 15.8758 20.3169 15.3578C20.1133 15.1295 20.0023 14.8335 20.0023 14.5251V10.5222C13.742 10.5222 10.4731 12.3602 8.97434 13.6061C8.72763 13.8096 8.36373 13.7788 8.16019 13.5321C8.05534 13.4026 8.006 13.2422 8.03067 13.0757C8.79547 8.345 12.9155 4.73068 20.0023 4.73068V1.25206C20.0023 0.561267 20.5574 0 21.2482 0C21.5566 0 21.8465 0.11102 22.0809 0.314556L29.5809 6.95108C30.099 7.41366 30.1483 8.21548 29.6796 8.73357C29.6487 8.77057 29.6117 8.80141 29.5809 8.83225Z" fill="#BBBBBB"/>
</svg>
