<svg width="18" height="19" viewBox="0 0 18 19" fill="none" xmlns="http://www.w3.org/2000/svg">
<path d="M8.80775 5.47872H11.0421C11.7821 5.47872 11.7821 4.34916 11.0421 4.34561H10.0789V3.83218C10.0789 3.52057 9.824 3.26562 9.51239 3.26562C9.20079 3.26562 8.94584 3.52057 8.94584 3.83218V4.34561C6.54508 4.25355 6.41052 7.76971 8.80775 7.85115H9.85587C10.6667 7.86532 10.6738 9.06924 9.85587 9.0834H7.62153C6.87793 9.09403 6.87439 10.2059 7.62153 10.2165H8.94584V10.7299C8.94938 11.47 10.0754 11.4735 10.0789 10.7299V10.1953C12.2283 9.8872 12.0265 6.76408 9.85587 6.72159H8.80775C7.99333 6.70389 7.98979 5.49288 8.80775 5.47872Z" fill="#02BF90" stroke="#02BF90" stroke-width="0.5"/>
<path d="M4.98383 12.7844C5.47248 12.7986 5.74513 12.1471 5.38042 11.8142C1.77573 8.34408 4.32521 2.10139 9.33212 2.13325C12.4446 2.13325 14.9764 4.66503 14.9764 7.77753C14.9906 8.26264 14.7285 9.02394 15.4225 9.12663C16.1697 9.18682 16.0953 8.29451 16.1095 7.77753C16.1095 4.04183 13.0678 1.00015 9.32857 1.00015C3.31958 0.961201 0.260204 8.45739 4.58724 12.6251C4.69701 12.7313 4.84219 12.7844 4.98383 12.7844Z" fill="#02BF90" stroke="#02BF90" stroke-width="0.5"/>
<path d="M17.6461 10.4795C17.632 10.1998 17.3841 10.0156 17.1221 9.98021L13.0854 9.78546C12.3489 9.76421 12.2851 10.8654 13.0323 10.9186L15.5428 11.039L10.3412 15.0721L8.19888 12.2004C8.01829 11.949 7.63233 11.8959 7.39154 12.0942L1.21613 16.9842C0.638955 17.4445 1.33652 18.3298 1.92078 17.873L7.63941 13.3441L9.77814 16.2123C9.87021 16.3362 10.0048 16.4141 10.157 16.4354C10.3057 16.4531 10.4615 16.4141 10.5819 16.3221L16.2404 11.9313L15.7482 14.3993C15.6065 15.1217 16.7078 15.3518 16.86 14.6189L17.6497 10.6565C17.6532 10.5999 17.6532 10.5397 17.6461 10.4795Z" fill="#02BF90" stroke="#02BF90" stroke-width="0.5"/>
</svg>
