<svg width="15" height="15" viewBox="0 0 15 15" fill="none" xmlns="http://www.w3.org/2000/svg">
<g clip-path="url(#clip0_18095_15604)">
<path d="M7.5274 2.06836C4.55119 2.06836 2.14453 4.47502 2.14453 7.45123C2.14453 10.4274 4.55119 12.8341 7.5274 12.8341C10.5036 12.8341 12.9068 10.4274 12.9068 7.45123C12.9068 4.47502 10.5036 2.06836 7.5274 2.06836ZM3.65173 5.1418H4.47132V7.35399L4.92626 6.79139L6.30497 5.13833H7.29472L5.54442 7.22897L7.39543 9.85789H6.42304L5.00266 7.81935L4.46785 8.38542V9.85789H3.64826L3.65173 5.1418ZM7.83301 5.1418H9.22561C9.64235 5.1418 10.0105 5.23557 10.3334 5.41963C10.6564 5.60369 10.9065 5.86762 11.0836 6.21143C11.2919 6.68373 11.3475 7.11436 11.351 7.6214C11.351 8.06939 11.2607 8.46182 11.0801 8.80215C10.903 9.14249 10.6495 9.40295 10.3195 9.58701C9.98963 9.77107 9.61456 9.86136 9.18741 9.86136H7.82954V5.1418H7.83301ZM8.65259 5.80164V9.20153H9.18741C9.61804 9.20153 9.94795 9.06609 10.1772 8.79868C10.4098 8.5278 10.5244 8.14232 10.5314 7.63876C10.5835 7.11089 10.4411 6.51357 10.198 6.20449C9.97574 5.93361 9.65276 5.79817 9.22908 5.79817H8.65259V5.80164Z" fill="#FFA009"/>
<path d="M7.49977 0.00195312C3.35322 0.00195312 0.00195312 3.35322 0.00195312 7.49977C0.00195312 11.6463 3.35322 15.0011 7.49977 15.0011C11.6463 15.0011 15.0011 11.6463 15.0011 7.49977C15.0011 3.35322 11.6428 0.00195312 7.49977 0.00195312ZM4.48189 1.50221C4.53745 1.60987 4.49925 1.74183 4.3916 1.80087C3.30113 2.39472 2.40514 3.29766 1.80782 4.38465C1.74878 4.49578 1.61334 4.53398 1.50568 4.47494C1.39803 4.4159 1.35983 4.27699 1.41886 4.16933C2.05786 3.00594 3.01636 2.04397 4.17975 1.40844C4.33603 1.33899 4.44369 1.42234 4.48189 1.50221ZM7.52755 1.50916C10.8024 1.50916 13.4661 4.17281 13.4661 7.44768C13.4661 10.7225 10.8024 13.3862 7.52755 13.3862C4.25268 13.3862 1.58903 10.7225 1.58903 7.44768C1.58903 4.17281 4.25268 1.50916 7.52755 1.50916ZM13.5077 10.5003C13.6154 10.5593 13.6536 10.6913 13.598 10.7989C12.966 11.9658 12.0075 12.9313 10.8476 13.5703C10.7399 13.6293 10.6079 13.5876 10.5489 13.4834C10.4899 13.3758 10.5281 13.2403 10.6357 13.1813C11.7227 12.5805 12.6187 11.681 13.2126 10.5871C13.2508 10.5176 13.3098 10.4864 13.3688 10.476C13.4209 10.469 13.473 10.4829 13.5077 10.5003Z" fill="#FFA009"/>
</g>
<defs>
<clipPath id="clip0_18095_15604">
<rect width="15" height="15" fill="white"/>
</clipPath>
</defs>
</svg>
