<svg width="22" height="22" viewBox="0 0 22 22" fill="none" xmlns="http://www.w3.org/2000/svg">
<g clipPath="url(#clip0_7072_5164)">
<path d="M20.4716 9.08959L12.9105 1.5285C11.9379 0.555869 10.5947 0 9.22842 0H4.05263C1.81789 0 0 1.81789 0 4.05263V9.22839C0 10.6179 0.544219 11.9262 1.52843 12.9104L9.08948 20.4715C10.0737 21.4557 11.3821 22 12.7716 22C14.1726 22 15.4811 21.4557 16.4653 20.4715L20.4716 16.4652C22.5095 14.4273 22.5095 11.1275 20.4716 9.08959ZM5.78947 7.52632C4.82842 7.52632 4.05263 6.75053 4.05263 5.78947C4.05263 4.82842 4.82842 4.05263 5.78947 4.05263C6.75053 4.05263 7.52632 4.82842 7.52632 5.78947C7.52632 6.75053 6.75053 7.52632 5.78947 7.52632Z" fill="#CDD4D8"/>
</g>
<defs>
<clipPath id="clip0_7072_5164">
<rect width="22" height="22" fill="white"/>
</clipPath>
</defs>
</svg>
