<svg width="22" height="22" viewBox="0 0 22 22" fill="none" xmlns="http://www.w3.org/2000/svg">
<path d="M22 11C22 17.0751 17.0751 22 11 22C4.92487 22 0 17.0751 0 11C0 4.92487 4.92487 0 11 0C17.0751 0 22 4.92487 22 11Z" fill="url(#paint0_linear_7641_12650)"/>
<path d="M8.24698 15.4441C8.01912 15.6718 7.71953 15.7941 7.39884 15.7941C7.07815 15.7941 6.77856 15.6676 6.5507 15.4441C6.32284 15.2164 6.20047 14.9171 6.20047 14.5966C6.20047 14.2762 6.32706 13.9768 6.5507 13.7491L9.81245 10.4898C9.60991 10.4392 9.40737 10.4013 9.20061 10.4013C8.58877 10.4013 7.9727 10.6374 7.50433 11.1054L5.70256 12.9058C4.76581 13.8419 4.76581 15.364 5.70256 16.2959C6.17094 16.7639 6.787 17 7.39884 17C8.01068 17 8.62674 16.7639 9.09512 16.2959L10.8969 14.4954C11.5214 13.8714 11.7197 12.9859 11.5087 12.1848L8.24698 15.4441Z" fill="white"/>
<path d="M8.77443 13.2178C9.00229 13.4455 9.39471 13.4455 9.62257 13.2178L13.2219 9.62122C13.4582 9.3851 13.4582 9.00984 13.2219 8.77372C13.108 8.65987 12.9603 8.59663 12.7957 8.59663C12.6311 8.59663 12.4835 8.65987 12.3695 8.77372L8.77021 12.3703C8.54235 12.6065 8.54235 12.9859 8.77443 13.2178Z" fill="white"/>
<path d="M16.298 5.70415C15.8296 5.23612 15.2135 5 14.6017 5C13.9898 5 13.3738 5.23612 12.9054 5.70415L11.1036 7.50457C10.4791 8.1286 10.2808 9.01405 10.4918 9.81518L11.9518 8.35207L13.7535 6.55165C13.9814 6.32396 14.281 6.20169 14.6017 6.20169C14.9224 6.20169 15.222 6.32818 15.4498 6.55165C15.6777 6.77934 15.8001 7.07871 15.8001 7.39916C15.8001 7.71961 15.6735 8.01897 15.4498 8.24666L12.1839 11.5102C12.3864 11.5608 12.5889 11.5987 12.7957 11.5987C13.4075 11.5987 14.0236 11.3626 14.492 10.8946L16.2937 9.09417C17.2347 8.15812 17.2347 6.6402 16.298 5.70415Z" fill="white"/>
<defs>
<linearGradient id="paint0_linear_7641_12650" x1="11" y1="0" x2="11" y2="22" gradientUnits="userSpaceOnUse">
<stop stop-color="#7293CC"/>
<stop offset="1" stop-color="#4B61B0"/>
</linearGradient>
</defs>
</svg>
