<svg width="15" height="16" viewBox="0 0 15 16" fill="none" xmlns="http://www.w3.org/2000/svg">
<path d="M7.79487 15.3846C7.79487 15.7243 7.51918 16 7.17949 16H3.89744C1.74851 16 0 14.2515 0 12.1026V3.89744C0 1.74851 1.74851 0 3.89744 0H7.17949C7.51918 0 7.79487 0.275692 7.79487 0.615385C7.79487 0.955077 7.51918 1.23077 7.17949 1.23077H3.89744C2.42708 1.23077 1.23077 2.42708 1.23077 3.89744V12.1026C1.23077 13.5729 2.42708 14.7692 3.89744 14.7692H7.17949C7.51918 14.7692 7.79487 15.0449 7.79487 15.3846ZM14.1785 7.5651L10.8964 4.28305C10.656 4.04264 10.2663 4.04264 10.0258 4.28305C9.78543 4.52346 9.78543 4.91324 10.0258 5.15365L12.2576 7.38542H5.53846C5.19877 7.38542 4.92308 7.66111 4.92308 8.0008C4.92308 8.34049 5.19877 8.61619 5.53846 8.61619H12.2576L10.0258 10.848C9.78543 11.0884 9.78543 11.4781 10.0258 11.7185C10.1456 11.8383 10.3032 11.899 10.4607 11.899C10.6183 11.899 10.7758 11.8392 10.8956 11.7185L14.1776 8.4365C14.4189 8.19445 14.4189 7.80551 14.1785 7.5651Z" fill="#181818"/>
</svg>
