<svg width="40" height="40" viewBox="0 0 40 40" fill="none" xmlns="http://www.w3.org/2000/svg">
<path d="M38.8281 40H1.17188C0.523438 40 0 39.4766 0 38.8281V13.6719C0 13.0234 0.523438 12.5 1.17188 12.5H12.9688C13.3594 12.5 13.7266 12.6953 13.9453 13.0234L16.7188 17.1875H38.8281C39.4766 17.1875 40 17.7109 40 18.3594V38.8281C40 39.4766 39.4766 40 38.8281 40ZM30.5469 11.3281C30.5469 10.6797 30.0234 10.1562 29.375 10.1562H19.2188C18.5703 10.1562 18.0469 10.6797 18.0469 11.3281C18.0469 11.9766 18.5703 12.5 19.2188 12.5H29.375C30.0234 12.5 30.5469 11.9766 30.5469 11.3281ZM30.5469 5.85938C30.5469 5.21094 30.0234 4.6875 29.375 4.6875H10.625C9.97656 4.6875 9.45312 5.21094 9.45312 5.85938C9.45312 6.50781 9.97656 7.03125 10.625 7.03125H29.375C30.0234 7.03125 30.5469 6.50781 30.5469 5.85938Z" fill="url(#paint0_linear_63_605)"/>
<path d="M15.7031 26.25C15.7031 25.6016 16.2266 25.0781 16.875 25.0781H18.8281V23.125C18.8281 22.4766 19.3516 21.9531 20 21.9531C20.6484 21.9531 21.1719 22.4766 21.1719 23.125V25.0781H23.125C23.7734 25.0781 24.2969 25.6016 24.2969 26.25C24.2969 26.8984 23.7734 27.4219 23.125 27.4219H21.1719V29.375C21.1719 30.0234 20.6484 30.5469 20 30.5469C19.3516 30.5469 18.8281 30.0234 18.8281 29.375V27.4219H16.875C16.2266 27.4219 15.7031 26.8984 15.7031 26.25ZM25.4688 32.8906H14.5312C13.8828 32.8906 13.3594 33.4141 13.3594 34.0625C13.3594 34.7109 13.8828 35.2344 14.5312 35.2344H25.4688C26.1172 35.2344 26.6406 34.7109 26.6406 34.0625C26.6406 33.4141 26.1172 32.8906 25.4688 32.8906ZM35.2344 1.17188V17.1875H16.7188L13.9453 13.0234C13.7266 12.6953 13.3594 12.5 12.9688 12.5H4.76562V1.17188C4.76562 0.523438 5.28906 0 5.9375 0H34.0625C34.7109 0 35.2344 0.523438 35.2344 1.17188ZM30.5469 11.3281C30.5469 10.6797 30.0234 10.1562 29.375 10.1562H19.2188C18.5703 10.1562 18.0469 10.6797 18.0469 11.3281C18.0469 11.9766 18.5703 12.5 19.2188 12.5H29.375C30.0234 12.5 30.5469 11.9766 30.5469 11.3281ZM30.5469 5.85938C30.5469 5.21094 30.0234 4.6875 29.375 4.6875H10.625C9.97656 4.6875 9.45312 5.21094 9.45312 5.85938C9.45312 6.50781 9.97656 7.03125 10.625 7.03125H29.375C30.0234 7.03125 30.5469 6.50781 30.5469 5.85938Z" fill="url(#paint1_linear_63_605)"/>
<defs>
<linearGradient id="paint0_linear_63_605" x1="1.15108" y1="4.68752" x2="42.5609" y2="5.85163" gradientUnits="userSpaceOnUse">
<stop stop-color="#5936F1"/>
<stop offset="0.995389" stop-color="#2ADBDF"/>
<stop offset="0.9998" stop-color="#4BB3E7"/>
<stop offset="0.9999" stop-color="#47DAE3"/>
</linearGradient>
<linearGradient id="paint1_linear_63_605" x1="20" y1="35.2344" x2="20" y2="0" gradientUnits="userSpaceOnUse">
<stop stop-color="#ADDCFF"/>
<stop offset="0.5028" stop-color="#EAF6FF"/>
<stop offset="1" stop-color="#EAF6FF"/>
</linearGradient>
</defs>
</svg>
