<svg width="25" height="30" viewBox="0 0 25 30" fill="none" xmlns="http://www.w3.org/2000/svg">
<path d="M15.8536 23.7326H1.87425V3.68285H15.8536V5.18106H17.7338V3.27099C17.7338 1.47433 16.2595 0 14.4628 0H3.27099C1.47433 0 0 1.47433 0 3.27099V26.729C0 28.5316 1.47433 30 3.27099 30H14.4568C16.2535 30 17.7338 28.5257 17.7338 26.729V23.6968H15.8595C15.8536 23.6968 15.8536 23.7326 15.8536 23.7326ZM8.86391 28.3645C8.03422 28.3645 7.3657 27.696 7.3657 26.8663C7.3657 26.0366 8.03422 25.3681 8.86391 25.3681C9.69359 25.3681 10.3681 26.0366 10.3681 26.8663C10.3621 27.696 9.69359 28.3645 8.86391 28.3645Z" fill="#BBBBBB"/>
<path d="M7.67608 5.69439H3.4799V8.2491H7.67608V5.69439Z" fill="#BBBBBB"/>
<path d="M7.67608 12.2423H3.4799V14.7971H7.67608V12.2423Z" fill="#BBBBBB"/>
<path d="M7.67608 19.0947H3.4799V21.6494H7.67608V19.0947Z" fill="#BBBBBB"/>
<path d="M22.5567 13.3645C22.4075 12.5885 22.109 11.8723 21.6852 11.2455L23.1894 9.74135L21.6554 8.21329L20.1512 9.71747C19.5245 9.2877 18.8082 8.99522 18.0322 8.846V6.71508H15.8595V8.846C15.0836 8.99522 14.3733 9.29367 13.7405 9.71747L12.2423 8.21329L10.7083 9.74731L12.2125 11.2515C11.7887 11.8782 11.4903 12.5945 11.341 13.3705H9.21011V15.5432H11.341C11.4903 16.3132 11.7887 17.0294 12.2125 17.6622L10.7023 19.1604L12.2364 20.6884L13.7405 19.1842C14.3673 19.614 15.0836 19.9065 15.8595 20.0617V22.1866H18.0322V20.0557C18.8022 19.9065 19.5185 19.608 20.1512 19.1842L21.6554 20.6884L23.1894 19.1604L21.6852 17.6562C22.109 17.0294 22.4075 16.3132 22.5567 15.5372H24.6876V13.3645H22.5567ZM16.9459 16.8146C15.6387 16.8146 14.5762 15.7581 14.5762 14.4509C14.5762 13.1437 15.6387 12.0812 16.9459 12.0812C18.2531 12.0812 19.3096 13.1437 19.3096 14.4509C19.3096 15.7581 18.2531 16.8146 16.9459 16.8146Z" fill="#BBBBBB"/>
</svg>
