<svg width="22" height="22" viewBox="0 0 22 22" fill="none" xmlns="http://www.w3.org/2000/svg">
<g clipPath="url(#clip0_7072_5189)">
<path d="M19.25 3.66667H13.75V2.75C13.75 2.02065 13.4603 1.32118 12.9445 0.805456C12.4288 0.289731 11.7293 0 11 0C10.2707 0 9.57118 0.289731 9.05546 0.805456C8.53973 1.32118 8.25 2.02065 8.25 2.75V3.66667H2.75C2.02065 3.66667 1.32118 3.9564 0.805456 4.47212C0.289731 4.98785 0 5.68732 0 6.41667L0 22H22V6.41667C22 5.68732 21.7103 4.98785 21.1945 4.47212C20.6788 3.9564 19.9793 3.66667 19.25 3.66667ZM9.16667 17.4167H2.75V8.25H9.16667V17.4167ZM10.0833 2.75C10.0833 2.50688 10.1799 2.27373 10.3518 2.10182C10.5237 1.92991 10.7569 1.83333 11 1.83333C11.2431 1.83333 11.4763 1.92991 11.6482 2.10182C11.8201 2.27373 11.9167 2.50688 11.9167 2.75V5.5H10.0833V2.75ZM17.4167 17.4167H11.9167V15.5833H17.4167V17.4167ZM19.25 13.75H11.9167V11.9167H19.25V13.75ZM19.25 10.0833H11.9167V8.25H19.25V10.0833ZM7.33333 15.5833H4.58333V10.0833H7.33333V15.5833Z" fill="#CDD4D8"/>
</g>
<defs>
<clipPath id="clip0_7072_5189">
<rect width="22" height="22" fill="white"/>
</clipPath>
</defs>
</svg>
