<svg width="292" height="219" viewBox="0 0 292 219" fill="none" xmlns="http://www.w3.org/2000/svg">
<rect width="292" height="219" rx="17" fill="#CDD4D8"/>
<path d="M78.515 123H73.195L61.149 104.798V123H55.829V96.438H61.149L73.195 114.678V96.438H78.515V123ZM93.1204 123.342C91.0937 123.342 89.2697 122.899 87.6484 122.012C86.0271 121.1 84.7477 119.821 83.8104 118.174C82.8984 116.527 82.4424 114.627 82.4424 112.474C82.4424 110.321 82.9111 108.421 83.8484 106.774C84.8111 105.127 86.1157 103.861 87.7624 102.974C89.4091 102.062 91.2457 101.606 93.2724 101.606C95.2991 101.606 97.1357 102.062 98.7824 102.974C100.429 103.861 101.721 105.127 102.658 106.774C103.621 108.421 104.102 110.321 104.102 112.474C104.102 114.627 103.608 116.527 102.62 118.174C101.658 119.821 100.34 121.1 98.6684 122.012C97.0217 122.899 95.1724 123.342 93.1204 123.342ZM93.1204 118.706C94.0831 118.706 94.9824 118.478 95.8184 118.022C96.6797 117.541 97.3637 116.831 97.8704 115.894C98.3771 114.957 98.6304 113.817 98.6304 112.474C98.6304 110.473 98.0984 108.94 97.0344 107.876C95.9957 106.787 94.7164 106.242 93.1964 106.242C91.6764 106.242 90.3971 106.787 89.3584 107.876C88.3451 108.94 87.8384 110.473 87.8384 112.474C87.8384 114.475 88.3324 116.021 89.3204 117.11C90.3337 118.174 91.6004 118.706 93.1204 118.706ZM122.38 96.476V123H117.06V96.476H122.38ZM153.78 101.644C156.364 101.644 158.441 102.442 160.012 104.038C161.608 105.609 162.406 107.813 162.406 110.65V123H157.086V111.372C157.086 109.725 156.668 108.471 155.832 107.61C154.996 106.723 153.856 106.28 152.412 106.28C150.968 106.28 149.815 106.723 148.954 107.61C148.118 108.471 147.7 109.725 147.7 111.372V123H142.38V111.372C142.38 109.725 141.962 108.471 141.126 107.61C140.29 106.723 139.15 106.28 137.706 106.28C136.236 106.28 135.071 106.723 134.21 107.61C133.374 108.471 132.956 109.725 132.956 111.372V123H127.636V101.948H132.956V104.494C133.64 103.607 134.514 102.911 135.578 102.404C136.667 101.897 137.858 101.644 139.15 101.644C140.796 101.644 142.266 101.999 143.558 102.708C144.85 103.392 145.85 104.38 146.56 105.672C147.244 104.456 148.232 103.481 149.524 102.746C150.841 102.011 152.26 101.644 153.78 101.644ZM166.086 112.398C166.086 110.27 166.504 108.383 167.34 106.736C168.201 105.089 169.354 103.823 170.798 102.936C172.267 102.049 173.901 101.606 175.7 101.606C177.271 101.606 178.639 101.923 179.804 102.556C180.995 103.189 181.945 103.987 182.654 104.95V101.948H188.012V123H182.654V119.922C181.97 120.91 181.02 121.733 179.804 122.392C178.613 123.025 177.233 123.342 175.662 123.342C173.889 123.342 172.267 122.886 170.798 121.974C169.354 121.062 168.201 119.783 167.34 118.136C166.504 116.464 166.086 114.551 166.086 112.398ZM182.654 112.474C182.654 111.182 182.401 110.08 181.894 109.168C181.387 108.231 180.703 107.521 179.842 107.04C178.981 106.533 178.056 106.28 177.068 106.28C176.08 106.28 175.168 106.521 174.332 107.002C173.496 107.483 172.812 108.193 172.28 109.13C171.773 110.042 171.52 111.131 171.52 112.398C171.52 113.665 171.773 114.779 172.28 115.742C172.812 116.679 173.496 117.401 174.332 117.908C175.193 118.415 176.105 118.668 177.068 118.668C178.056 118.668 178.981 118.427 179.842 117.946C180.703 117.439 181.387 116.73 181.894 115.818C182.401 114.881 182.654 113.766 182.654 112.474ZM201.454 101.606C203.025 101.606 204.405 101.923 205.596 102.556C206.787 103.164 207.724 103.962 208.408 104.95V101.948H213.766V123.152C213.766 125.103 213.373 126.838 212.588 128.358C211.803 129.903 210.625 131.119 209.054 132.006C207.483 132.918 205.583 133.374 203.354 133.374C200.365 133.374 197.907 132.677 195.982 131.284C194.082 129.891 193.005 127.991 192.752 125.584H198.034C198.313 126.547 198.908 127.307 199.82 127.864C200.757 128.447 201.885 128.738 203.202 128.738C204.747 128.738 206.001 128.269 206.964 127.332C207.927 126.42 208.408 125.027 208.408 123.152V119.884C207.724 120.872 206.774 121.695 205.558 122.354C204.367 123.013 202.999 123.342 201.454 123.342C199.681 123.342 198.059 122.886 196.59 121.974C195.121 121.062 193.955 119.783 193.094 118.136C192.258 116.464 191.84 114.551 191.84 112.398C191.84 110.27 192.258 108.383 193.094 106.736C193.955 105.089 195.108 103.823 196.552 102.936C198.021 102.049 199.655 101.606 201.454 101.606ZM208.408 112.474C208.408 111.182 208.155 110.08 207.648 109.168C207.141 108.231 206.457 107.521 205.596 107.04C204.735 106.533 203.81 106.28 202.822 106.28C201.834 106.28 200.922 106.521 200.086 107.002C199.25 107.483 198.566 108.193 198.034 109.13C197.527 110.042 197.274 111.131 197.274 112.398C197.274 113.665 197.527 114.779 198.034 115.742C198.566 116.679 199.25 117.401 200.086 117.908C200.947 118.415 201.859 118.668 202.822 118.668C203.81 118.668 204.735 118.427 205.596 117.946C206.457 117.439 207.141 116.73 207.648 115.818C208.155 114.881 208.408 113.766 208.408 112.474ZM238.532 112.018C238.532 112.778 238.481 113.462 238.38 114.07H222.99C223.117 115.59 223.649 116.781 224.586 117.642C225.523 118.503 226.676 118.934 228.044 118.934C230.02 118.934 231.426 118.085 232.262 116.388H238C237.392 118.415 236.227 120.087 234.504 121.404C232.781 122.696 230.666 123.342 228.158 123.342C226.131 123.342 224.307 122.899 222.686 122.012C221.09 121.1 219.836 119.821 218.924 118.174C218.037 116.527 217.594 114.627 217.594 112.474C217.594 110.295 218.037 108.383 218.924 106.736C219.811 105.089 221.052 103.823 222.648 102.936C224.244 102.049 226.081 101.606 228.158 101.606C230.159 101.606 231.945 102.037 233.516 102.898C235.112 103.759 236.341 104.988 237.202 106.584C238.089 108.155 238.532 109.966 238.532 112.018ZM233.022 110.498C232.997 109.13 232.503 108.041 231.54 107.23C230.577 106.394 229.399 105.976 228.006 105.976C226.689 105.976 225.574 106.381 224.662 107.192C223.775 107.977 223.231 109.079 223.028 110.498H233.022Z" fill="#797979"/>
</svg>
