<svg width="12" height="16" viewBox="0 0 12 16" fill="none" xmlns="http://www.w3.org/2000/svg">
<path d="M12 4.162C12.0009 3.81159 11.9323 3.46447 11.7982 3.14074C11.6641 2.81701 11.4671 2.52309 11.2187 2.276L9.724 0.781333C9.22311 0.282559 8.54553 0.00175163 7.83867 0L2 0C1.46957 0 0.960859 0.210714 0.585787 0.585786C0.210714 0.960859 0 1.46957 0 2V16H12V4.162ZM10.276 3.21867C10.3095 3.25504 10.3409 3.29333 10.37 3.33333H8.66667V1.63C8.70667 1.65909 8.74496 1.69048 8.78133 1.724L10.276 3.21867ZM1.33333 14.6667V2C1.33333 1.82319 1.40357 1.65362 1.5286 1.5286C1.65362 1.40357 1.82319 1.33333 2 1.33333H7.33333V4.66667H10.6667V14.6667H1.33333ZM3.33333 6H8.66667V7.33333H3.33333V6ZM3.33333 8.66667H8.66667V10H3.33333V8.66667ZM7.34533 11.2093L8.65533 11.4533C8.528 12.1513 7.98533 13.3333 6.75667 13.3333C6.27442 13.3329 5.80697 13.1667 5.43267 12.8627C5.22333 12.714 5.15 12.6667 4.99133 12.6667C4.75267 12.7572 4.54205 12.9089 4.38067 13.1067L3.38067 12.2287C3.78392 11.736 4.36 11.4157 4.99133 11.3333C5.43455 11.3386 5.86274 11.4948 6.20533 11.776C6.35475 11.9168 6.55139 11.9967 6.75667 12C7.172 12 7.34333 11.218 7.34533 11.2093Z" fill="#181818"/>
</svg>
