<svg width="26" height="27" viewBox="0 0 26 27" fill="none" xmlns="http://www.w3.org/2000/svg">
<path opacity="0.4" d="M12.8765 22.2257C13.4015 22.225 13.9133 22.0607 14.3407 21.7558C14.768 21.4508 15.0898 21.0203 15.2612 20.524L10.4832 20.5363C10.6571 21.0317 10.9811 21.4605 11.41 21.7633C11.8389 22.0661 12.3515 22.2277 12.8765 22.2257ZM18.7947 15.9251L18.7847 12.0373C18.7777 9.31005 16.9195 7.01737 14.4083 6.33289C14.1583 5.70788 13.5502 5.2686 12.833 5.27044C12.1158 5.27229 11.5099 5.71468 11.2631 6.34097C8.75552 7.03918 6.90906 9.34053 6.91607 12.0678L6.92605 15.9556L5.48264 17.4065C5.40396 17.4852 5.34165 17.5788 5.29928 17.6818C5.25692 17.7848 5.23534 17.8951 5.23578 18.0065L5.23796 18.8542C5.23854 19.0791 5.32841 19.2945 5.4878 19.453C5.6472 19.6116 5.86306 19.7004 6.0879 19.6998L19.6521 19.665C19.8769 19.6644 20.0923 19.5745 20.2509 19.4151C20.4095 19.2557 20.4982 19.0399 20.4977 18.815L20.4955 17.9673C20.4954 17.8559 20.4732 17.7457 20.4303 17.6429C20.3874 17.5402 20.3246 17.4469 20.2456 17.3685L18.7947 15.9251Z" fill="#181818"/>
<circle cx="17.8208" cy="7.71118" r="2.18692" transform="rotate(-0.23402 17.8208 7.71118)" fill="#46DFE3"/>
</svg>
