<?xml version="1.0" encoding="utf-8"?>
<!-- Generator: Adobe Illustrator 25.2.0, SVG Export Plug-In . SVG Version: 6.00 Build 0)  -->
<svg version="1.1" id="Layer_1" xmlns="http://www.w3.org/2000/svg" xmlns:xlink="http://www.w3.org/1999/xlink" x="0px" y="0px"
	 viewBox="0 0 15.3 17" style="enable-background:new 0 0 15.3 17;" xml:space="preserve">
<style type="text/css">
	.st0{opacity:0.4;fill:#181818;enable-background:new    ;}
</style>
<path class="st0" d="M7.6,17c0.5,0,1-0.2,1.5-0.5c0.4-0.3,0.7-0.7,0.9-1.2l-4.8,0c0.2,0.5,0.5,0.9,0.9,1.2C6.6,16.8,7.1,17,7.6,17
	L7.6,17z M13.6,10.7l0-3.9c0-2.7-1.9-5-4.4-5.7C8.9,0.4,8.3,0,7.6,0C6.9,0,6.3,0.4,6,1.1c-2.5,0.7-4.4,3-4.3,5.7l0,3.9l-1.4,1.5
	c-0.1,0.1-0.1,0.2-0.2,0.3C0,12.5,0,12.6,0,12.7l0,0.8c0,0.2,0.1,0.4,0.2,0.6c0.2,0.2,0.4,0.2,0.6,0.2l13.6,0c0.2,0,0.4-0.1,0.6-0.2
	c0.2-0.2,0.2-0.4,0.2-0.6l0-0.8c0-0.1,0-0.2-0.1-0.3c0-0.1-0.1-0.2-0.2-0.3L13.6,10.7z"/>
</svg>
