<svg width="28" height="30" viewBox="0 0 28 30" fill="none" xmlns="http://www.w3.org/2000/svg">
<path d="M7.768 29.9997C8.24843 29.9997 8.74239 29.9997 9.24311 29.9997H18.7569C19.2576 29.9997 19.7516 29.9997 20.232 29.9997C24.637 29.9997 28 29.7848 28 25.3512C28 20.7158 24.3122 16.9137 19.6095 16.4971C19.5689 18.1182 14 22.1221 14 22.1221C14 22.1221 8.42436 18.1182 8.39053 16.4971C3.68777 16.9072 0 20.7158 0 25.3512C0 29.7848 3.36298 29.9997 7.768 29.9997ZM18.1547 23.9515C18.1547 23.8213 18.2765 23.7106 18.4321 23.7106H19.9343V22.2653C19.9343 22.1156 20.0425 21.9984 20.1846 21.9984H21.6665C21.8018 21.9984 21.9169 22.1156 21.9169 22.2653V23.7106H23.419C23.5747 23.7106 23.6965 23.8148 23.6965 23.9515V25.3773C23.6965 25.5075 23.5747 25.6182 23.419 25.6182H21.9169V27.0635C21.9169 27.2132 21.8086 27.3304 21.6665 27.3304H20.1846C20.0493 27.3304 19.9343 27.2132 19.9343 27.0635V25.6182H18.4321C18.2765 25.6182 18.1547 25.514 18.1547 25.3773V23.9515Z" fill="url(#paint0_linear_7024_2940)"/>
<path d="M13.9999 17.6628C18.2561 17.6628 21.707 11.5039 21.707 7.40885C21.707 3.32031 18.2561 0 13.9999 0C9.74374 0 6.29956 3.32031 6.29956 7.41536C6.29956 11.5039 9.74374 17.6628 13.9999 17.6628Z" fill="url(#paint1_linear_7024_2940)"/>
<defs>
<linearGradient id="paint0_linear_7024_2940" x1="0.805755" y1="16.4971" x2="29.7389" y2="17.9861" gradientUnits="userSpaceOnUse">
<stop stopColor="#5936F1"/>
<stop offset="0.995389" stopColor="#2ADBDF"/>
<stop offset="0.9998" stopColor="#4BB3E7"/>
<stop offset="0.9999" stopColor="#47DAE3"/>
</linearGradient>
<linearGradient id="paint1_linear_7024_2940" x1="6.74294" y1="1.20521e-05" x2="22.6986" y2="0.345428" gradientUnits="userSpaceOnUse">
<stop stopColor="#5936F1"/>
<stop offset="0.995389" stopColor="#2ADBDF"/>
<stop offset="0.9998" stopColor="#4BB3E7"/>
<stop offset="0.9999" stopColor="#47DAE3"/>
</linearGradient>
</defs>
</svg>
