<svg width="25" height="25" viewBox="0 0 25 25" fill="none" xmlns="http://www.w3.org/2000/svg">
<path d="M12.5 0C5.5957 0 0 5.5957 0 12.5C0 19.4043 5.5957 25 12.5 25C19.4043 25 25 19.4043 25 12.5C25 5.5957 19.4043 0 12.5 0ZM16.8213 13.1641L10.5713 17.0703C10.4443 17.1484 10.3027 17.1875 10.1562 17.1875C10.0244 17.1875 9.89746 17.1533 9.77539 17.0898C9.52637 16.9531 9.375 16.6895 9.375 16.4062V8.59375C9.375 8.31055 9.53125 8.04688 9.77539 7.91016C10.0244 7.77344 10.3271 7.77832 10.5664 7.92969L16.8164 11.8359C17.0459 11.9775 17.1826 12.2314 17.1826 12.5C17.1826 12.7686 17.0508 13.0176 16.8213 13.1641Z" fill="#02BF90"/>
</svg>
