<svg width="22" height="26" viewBox="0 0 22 26" fill="none" xmlns="http://www.w3.org/2000/svg">
<g clipPath="url(#clip0_194_1397)">
<path d="M11.923 18.4151C11.5623 18.4151 11.2219 18.2373 11.0238 17.9325L9.17971 15.1638H7.58963C6.99018 15.1638 6.50757 14.6761 6.50757 14.0818C6.50757 13.4874 6.99526 12.9997 7.58963 12.9997H9.75376C10.1144 12.9997 10.4548 13.1826 10.6529 13.4823L11.7858 15.1791L14.2039 10.3479C14.3817 9.99227 14.7373 9.76366 15.1336 9.74842C15.5502 9.73826 15.9007 9.93638 16.1039 10.2717L19.0402 15.1638H20.5947C21.1942 15.1638 21.6768 15.6515 21.6768 16.2459C21.6768 16.8403 21.1891 17.3279 20.5947 17.3279H18.4255C18.0445 17.3279 17.694 17.1298 17.4958 16.8047L15.2606 13.081L12.8933 17.8156C12.7205 18.1611 12.3751 18.3897 11.989 18.4151C11.9687 18.4151 11.9433 18.4151 11.923 18.4151Z" fill="black"/>
<path d="M11.923 18.4151C11.5623 18.4151 11.2219 18.2373 11.0238 17.9325L9.17971 15.1638H7.58963C6.99018 15.1638 6.50757 14.6761 6.50757 14.0818C6.50757 13.4874 6.99526 12.9997 7.58963 12.9997H9.75376C10.1144 12.9997 10.4548 13.1826 10.6529 13.4823L11.7858 15.1791L14.2039 10.3479C14.3817 9.99227 14.7373 9.76366 15.1336 9.74842C15.5502 9.73826 15.9007 9.93638 16.1039 10.2717L19.0402 15.1638H20.5947C21.1942 15.1638 21.6768 15.6515 21.6768 16.2459C21.6768 16.8403 21.1891 17.3279 20.5947 17.3279H18.4255C18.0445 17.3279 17.694 17.1298 17.4958 16.8047L15.2606 13.081L12.8933 17.8156C12.7205 18.1611 12.3751 18.3897 11.989 18.4151C11.9687 18.4151 11.9433 18.4151 11.923 18.4151Z" fill="url(#paint0_linear_194_1397)"/>
<path d="M18.4256 19.4975C17.2876 19.4975 16.2259 18.8929 15.6417 17.9175L15.4334 17.5823L14.8288 18.7862C14.3208 19.8277 13.2794 20.5084 12.1313 20.5744L11.923 20.5846C10.8308 20.5846 9.81985 20.041 9.21532 19.1317L8.01133 17.3333H7.58968C5.80148 17.3333 4.33841 15.8703 4.33841 14.0821C4.33841 12.2939 5.80148 10.8308 7.58968 10.8308H9.75381C10.3177 10.8308 10.8613 10.973 11.3337 11.2423L12.2634 9.37788C12.7968 8.31614 13.8585 7.62016 15.0473 7.57952C15.5147 7.56936 15.9668 7.64556 16.3783 7.81829C13.8179 3.76944 10.5565 0.45721 10.3279 0.228605C10.0231 -0.0762016 9.48456 -0.0762016 9.17976 0.228605C8.79875 0.604533 0 9.56077 0 16.17C0 21.5905 4.37905 26 9.75381 26C13.9703 26 17.5772 23.2821 18.9336 19.4975H18.4256Z" fill="black"/>
<path d="M18.4256 19.4975C17.2876 19.4975 16.2259 18.8929 15.6417 17.9175L15.4334 17.5823L14.8288 18.7862C14.3208 19.8277 13.2794 20.5084 12.1313 20.5744L11.923 20.5846C10.8308 20.5846 9.81985 20.041 9.21532 19.1317L8.01133 17.3333H7.58968C5.80148 17.3333 4.33841 15.8703 4.33841 14.0821C4.33841 12.2939 5.80148 10.8308 7.58968 10.8308H9.75381C10.3177 10.8308 10.8613 10.973 11.3337 11.2423L12.2634 9.37788C12.7968 8.31614 13.8585 7.62016 15.0473 7.57952C15.5147 7.56936 15.9668 7.64556 16.3783 7.81829C13.8179 3.76944 10.5565 0.45721 10.3279 0.228605C10.0231 -0.0762016 9.48456 -0.0762016 9.17976 0.228605C8.79875 0.604533 0 9.56077 0 16.17C0 21.5905 4.37905 26 9.75381 26C13.9703 26 17.5772 23.2821 18.9336 19.4975H18.4256Z" fill="url(#paint1_linear_194_1397)"/>
</g>
<defs>
<linearGradient id="paint0_linear_194_1397" x1="6.50757" y1="9.74805" x2="22.6874" y2="11.2862" gradientUnits="userSpaceOnUse">
<stop stopColor="#FE6587"/>
<stop offset="1" stopColor="#F52D6A"/>
</linearGradient>
<linearGradient id="paint1_linear_194_1397" x1="0" y1="0" x2="20.3456" y2="0.804767" gradientUnits="userSpaceOnUse">
<stop stopColor="#FE6587"/>
<stop offset="1" stopColor="#F52D6A"/>
</linearGradient>
<clipPath id="clip0_194_1397">
<rect width="21.6768" height="26" fill="white"/>
</clipPath>
</defs>
</svg>
