<svg width="57" height="56" viewBox="0 0 57 56" fill="none" xmlns="http://www.w3.org/2000/svg">
<g clipPath="url(#clip0_9427_13242)">
<path d="M44.167 15.8848H40.1172V23.1877H43.8184C46.5072 23.1877 48.6981 25.3785 48.6981 28.0673C48.6981 30.7395 46.5238 32.9138 43.8516 32.9138H40.1172V34.7395V35.1379V35.5196C40.1172 38.059 38.0591 40.1005 35.5363 40.1005H34.972H34.0757H33.0135V43.8184C33.0135 46.4906 30.8226 48.7146 28.1504 48.6814C25.4118 48.6483 23.2043 46.4076 23.2043 43.669V40.1171H16.1172V43.9346C16.1172 50.5902 21.5114 56.0009 28.1836 56.0009C34.8392 56.0009 40.25 50.6068 40.25 43.9346V40.0009H44.167C50.8226 40.0009 56.2334 34.6068 56.2334 27.9346C56.2334 21.279 50.8226 15.8848 44.167 15.8848Z" fill="#5937F1"/>
<path d="M28.0498 0C21.3942 0 15.9834 5.39419 15.9834 12.0664V15.9834H12.0664C5.39419 15.9834 0 21.3942 0 28.0498C0 34.7054 5.39419 40.1162 12.0664 40.1162H16.1162H23.2199H26.473H28.0664H33.029H34.0913H34.9875H35.5519C38.0913 40.1162 40.1328 38.0581 40.1328 35.5353V35.1535V34.7552V32.9295V28.2158C40.1328 28.166 40.1328 28.0996 40.1328 28.0498V23.1867V15.8838V12.0664C40.1162 5.39419 34.7054 0 28.0498 0ZM33.0124 32.8133H23.2033H16.1162H12.4149C9.72614 32.8133 7.53527 30.6224 7.53527 27.9336C7.53527 25.2614 9.70954 23.0871 12.3817 23.0871H16.1162H20.9627C22.2075 23.0871 23.2199 22.0747 23.2199 20.8299V15.8838V12.1826C23.2199 9.51037 25.4108 7.28631 28.083 7.3195C30.8216 7.3527 33.029 9.59336 33.029 12.332V15.8838V23.0871V23.1867V32.8133H33.0124Z" fill="#2DCEE0"/>
</g>
<defs>
<clipPath id="clip0_9427_13242">
<rect width="56.2324" height="56" fill="white"/>
</clipPath>
</defs>
</svg>
