<svg width="16" height="16" viewBox="0 0 16 16" fill="none" xmlns="http://www.w3.org/2000/svg">
<path d="M0.798687 5.59831C1.24115 5.59831 1.59737 5.23834 1.59737 4.79962V2.39981C1.59737 1.95735 1.95735 1.60112 2.39606 1.60112H4.79587C5.23834 1.60112 5.59456 1.24115 5.59456 0.802437C5.59456 0.363721 5.24208 0 4.79962 0H2.39981C1.07616 0 0 1.07616 0 2.39981V4.79962C0 5.24209 0.359971 5.59831 0.798687 5.59831Z" fill="#02BF90"/>
<path d="M15.1975 10.398C14.755 10.398 14.3988 10.7579 14.3988 11.1966V13.5965C14.3988 14.0389 14.0388 14.3951 13.6001 14.3951H11.2003C10.7578 14.3951 10.4016 14.7551 10.4016 15.1938C10.4016 15.6325 10.7616 15.9925 11.2003 15.9925H13.6001C14.9238 15.9925 15.9999 14.9164 15.9999 13.5927V11.1929C15.9999 10.7579 15.64 10.398 15.1975 10.398Z" fill="#02BF90"/>
<path d="M4.79962 14.3989H2.39981C1.95735 14.3989 1.60112 14.0389 1.60112 13.6002V11.2004C1.60112 10.7579 1.24115 10.4017 0.802436 10.4017C0.363721 10.4017 0 10.7579 0 11.2004V13.6002C0 14.9238 1.07616 16 2.39981 16H4.79962C5.24208 16 5.59831 15.64 5.59831 15.2013C5.59831 14.7626 5.24208 14.3989 4.79962 14.3989Z" fill="#02BF90"/>
<path d="M13.6001 0H11.2003C10.7578 0 10.4016 0.359972 10.4016 0.798687C10.4016 1.2374 10.7616 1.59737 11.2003 1.59737H13.6001C14.0426 1.59737 14.3988 1.95735 14.3988 2.39606V4.79587C14.3988 5.23834 14.7588 5.59456 15.1975 5.59456C15.6362 5.59456 15.9962 5.23459 15.9962 4.79587V2.39981C15.9999 1.07616 14.9238 0 13.6001 0Z" fill="#02BF90"/>
<path d="M15.1975 7.19943H0.798687C0.359971 7.19943 0 7.5594 0 7.99812C0 8.44058 0.359971 8.79681 0.798687 8.79681H15.1975C15.64 8.79681 15.9962 8.43683 15.9962 7.99812C16 7.5594 15.64 7.19943 15.1975 7.19943Z" fill="#02BF90"/>
</svg>
