<svg width="38" height="38" viewBox="0 0 38 38" fill="none" xmlns="http://www.w3.org/2000/svg">
<rect opacity="0.1" x="1.5" y="1.5" width="35" height="35" rx="11.5" fill="#5936F1" stroke="white" stroke-width="3"/>
<path d="M24.1172 20.249C24.1289 20.2402 24.1377 20.2285 24.1494 20.2197C24.6445 19.7305 24.9141 19.0771 24.9141 18.3799V16.7773C24.9141 15.3477 23.751 14.1846 22.3213 14.1846C21.0527 14.1846 19.9951 15.1016 19.7725 16.3057C19.5615 16.1855 19.333 16.0918 19.0957 16.0244C19.4502 15.6201 19.6436 15.1045 19.6436 14.5596V13.2295C19.6436 12.002 18.6445 11 17.4141 11C16.1836 11 15.1846 11.999 15.1846 13.2295V14.5391C15.1846 15.1074 15.3955 15.626 15.7412 16.0244C14.4463 16.3848 13.4941 17.5742 13.4941 18.9863V19.3525L12 21.5557H13.04V22.9238C13.04 24.6201 14.4199 26 16.1162 26H26.9707V24.0459C26.9707 22.2471 25.7637 20.7266 24.1172 20.249ZM16.1162 23.3633C15.873 23.3633 15.6768 23.167 15.6768 22.9238V21.5557H16.7168L16.3184 20.9697H19.1484C18.4189 21.5586 17.9033 22.4023 17.7363 23.3633H16.1162ZM20.6104 16.7744C20.6104 15.8311 21.3779 15.0605 22.3242 15.0605C23.2676 15.0605 24.0381 15.8281 24.0381 16.7744V18.377C24.0381 18.8369 23.8594 19.2676 23.5312 19.5928C23.2061 19.918 22.7695 20.0938 22.3125 20.0908C21.375 20.085 20.6133 19.3027 20.6133 18.3506V16.7744H20.6104ZM16.0664 13.2295C16.0664 12.4854 16.6729 11.8789 17.417 11.8789C18.1611 11.8789 18.7676 12.4854 18.7676 13.2295V14.5625C18.7676 14.9258 18.627 15.2656 18.3691 15.5205C18.1113 15.7754 17.7715 15.9131 17.4082 15.9131C16.6699 15.9072 16.0693 15.292 16.0693 14.542L16.0664 13.2295ZM16.5703 16.7891H18.2695C18.832 16.7891 19.3447 17 19.7344 17.3486V18.3506C19.7344 19.0156 19.9834 19.6279 20.3936 20.0908H15.7236L14.4902 18.2715C14.7891 17.4102 15.6064 16.7891 16.5703 16.7891ZM16.1162 25.1211C14.9033 25.1211 13.9189 24.1367 13.9189 22.9238V20.6768H13.6582L14.3584 19.6426L15.0586 20.6768H14.7979V22.9238C14.7979 23.6504 15.3896 24.2422 16.1162 24.2422H18.0205V25.1211H16.1162ZM26.0918 25.1211H18.8994V23.3633H18.6328C18.9434 21.9951 20.1709 20.9697 21.6328 20.9697H23.0156C24.7119 20.9697 26.0918 22.3496 26.0918 24.0459V25.1211Z" fill="#5936F1"/>
</svg>
