<svg width="16" height="18" viewBox="0 0 16 18" fill="none" xmlns="http://www.w3.org/2000/svg">
<path d="M12.0182 9.99846C12.0182 10.1879 11.9403 10.3695 11.8015 10.5035C11.6627 10.6374 11.4744 10.7126 11.2781 10.7126H5.35731C5.16102 10.7126 4.97277 10.6374 4.83397 10.5035C4.69518 10.3695 4.6172 10.1879 4.6172 9.99846C4.6172 9.80905 4.69518 9.62739 4.83397 9.49346C4.97277 9.35953 5.16102 9.28428 5.35731 9.28428H11.2781C11.4744 9.28428 11.6627 9.35953 11.8015 9.49346C11.9403 9.62739 12.0182 9.80905 12.0182 9.99846ZM9.05782 12.141H5.35731C5.16102 12.141 4.97277 12.2162 4.83397 12.3502C4.69518 12.4841 4.6172 12.6657 4.6172 12.8552C4.6172 13.0446 4.69518 13.2262 4.83397 13.3602C4.97277 13.4941 5.16102 13.5693 5.35731 13.5693H9.05782C9.25411 13.5693 9.44236 13.4941 9.58115 13.3602C9.71995 13.2262 9.79793 13.0446 9.79793 12.8552C9.79793 12.6657 9.71995 12.4841 9.58115 12.3502C9.44236 12.2162 9.25411 12.141 9.05782 12.141ZM15.7188 7.48813V13.5693C15.7176 14.516 15.3273 15.4236 14.6336 16.0931C13.9399 16.7625 12.9993 17.1391 12.0182 17.1402H4.6172C3.63613 17.1391 2.69557 16.7625 2.00184 16.0931C1.30811 15.4236 0.917862 14.516 0.916687 13.5693V3.57089C0.917862 2.62418 1.30811 1.71658 2.00184 1.04715C2.69557 0.37773 3.63613 0.00115047 4.6172 1.64608e-05H7.95877C8.63938 -0.00167394 9.31359 0.126845 9.94241 0.378143C10.5712 0.62944 11.1422 0.998531 11.6223 1.46407L14.2008 3.95369C14.6835 4.41664 15.0662 4.96743 15.3268 5.57413C15.5874 6.18083 15.7206 6.8314 15.7188 7.48813ZM10.5758 2.47392C10.3428 2.25621 10.0813 2.06893 9.79793 1.91686V4.99924C9.79793 5.18865 9.8759 5.3703 10.0147 5.50423C10.1535 5.63817 10.3417 5.71341 10.538 5.71341H13.7323C13.5746 5.44002 13.3803 5.18788 13.1543 4.96353L10.5758 2.47392ZM14.2385 7.48813C14.2385 7.3703 14.2149 7.25746 14.2038 7.14176H10.538C9.94917 7.14176 9.38442 6.91603 8.96803 6.51423C8.55164 6.11243 8.31772 5.56747 8.31772 4.99924V1.46193C8.19782 1.45122 8.08015 1.42837 7.95877 1.42837H4.6172C4.02834 1.42837 3.4636 1.65409 3.04721 2.0559C2.63082 2.4577 2.39689 3.00266 2.39689 3.57089V13.5693C2.39689 14.1376 2.63082 14.6825 3.04721 15.0843C3.4636 15.4861 4.02834 15.7119 4.6172 15.7119H12.0182C12.6071 15.7119 13.1718 15.4861 13.5882 15.0843C14.0046 14.6825 14.2385 14.1376 14.2385 13.5693V7.48813Z" fill="#02BF90"/>
</svg>
