<svg width="28" height="30" viewBox="0 0 28 30" fill="none" xmlns="http://www.w3.org/2000/svg">
<g clip-path="url(#clip0_3859_17512)">
<path d="M15.3625 4.47153C16.1569 4.47153 16.8038 3.8247 16.8038 3.0232V1.44129C16.8038 0.646824 16.1569 0 15.3625 0H6.2577C5.46323 0 4.81641 0.646824 4.81641 1.44129V3.0232C4.81641 3.81767 5.46323 4.47153 6.2577 4.47153H15.3625Z" fill="url(#paint0_linear_3859_17512)"/>
<path d="M10.6367 21.4585C11.5085 21.6413 12.2608 22.2952 12.5913 22.6256C13.1326 23.167 13.674 23.9404 13.8638 24.7208L24.902 13.6826L21.6538 10.4414L10.6367 21.4585Z" fill="url(#paint1_linear_3859_17512)"/>
<path d="M10.1028 22.6043L9.1888 25.3955C9.12553 25.6134 9.17474 25.8454 9.33645 26.0071C9.44894 26.1196 9.60362 26.1829 9.75829 26.1829C9.82157 26.1829 9.88484 26.1688 9.94109 26.1548L12.7323 25.2408C12.7112 24.7627 12.3315 24.0596 11.7409 23.469C11.1715 22.8996 10.5035 22.5551 10.1028 22.6043Z" fill="url(#paint2_linear_3859_17512)"/>
<path d="M23.68 8.41665L22.5059 9.59078L25.754 12.839L26.9282 11.6648C27.357 11.2289 27.6031 10.6524 27.6031 10.0407C27.6031 9.42907 27.3641 8.85255 26.9282 8.42368C26.0564 7.54484 24.5448 7.54484 23.68 8.41665Z" fill="url(#paint3_linear_3859_17512)"/>
<path d="M2.95289 1.63203C1.3288 1.63203 0 2.96083 0 4.58492V27.048C0 28.6791 1.3288 30.0009 2.95289 30.0009H18.6665C20.2976 30.0009 21.6264 28.6791 21.6264 27.048V18.6604L14.5887 25.6911C14.3848 25.8879 14.1528 26.0356 13.8856 26.12L10.314 27.2871C10.1031 27.3503 9.92735 27.3785 9.75861 27.3785C9.28052 27.3785 8.83056 27.1957 8.49309 26.8582C8.02203 26.3871 7.84626 25.6911 8.04312 25.0443L9.21022 21.4656C9.30162 21.1914 9.44926 20.9454 9.64612 20.7485L21.6194 8.78225V4.57789C21.6194 2.9538 20.2906 1.625 18.6595 1.625H17.9986V3.01708C17.9986 4.47243 16.8174 5.66062 15.3621 5.66062H6.25732C4.80197 5.66062 3.62081 4.47243 3.62081 3.01708V1.63203H2.95289ZM12.128 14.906H3.92313C3.59269 14.906 3.32552 14.6388 3.32552 14.3084C3.32552 13.9779 3.59269 13.7108 3.92313 13.7108H12.128C12.4584 13.7108 12.7256 13.9779 12.7256 14.3084C12.7256 14.6388 12.4584 14.906 12.128 14.906ZM17.6892 11.4258H3.92313C3.59269 11.4258 3.32552 11.1586 3.32552 10.8282C3.32552 10.4977 3.59269 10.2306 3.92313 10.2306H17.6892C18.0197 10.2306 18.2869 10.4977 18.2869 10.8282C18.2939 11.1516 18.0197 11.4258 17.6892 11.4258ZM3.92313 6.74335H17.6892C18.0197 6.74335 18.2869 7.01052 18.2869 7.34096C18.2869 7.6714 18.0197 7.93857 17.6892 7.93857H3.92313C3.59269 7.93857 3.32552 7.6714 3.32552 7.34096C3.32552 7.01755 3.59269 6.74335 3.92313 6.74335Z" fill="url(#paint4_linear_3859_17512)"/>
</g>
<defs>
<linearGradient id="paint0_linear_3859_17512" x1="5.16137" y1="3.05112e-06" x2="17.5263" y2="0.822655" gradientUnits="userSpaceOnUse">
<stop stop-color="#5936F1"/>
<stop offset="0.995389" stop-color="#2ADBDF"/>
<stop offset="0.9998" stop-color="#4BB3E7"/>
<stop offset="0.9999" stop-color="#47DAE3"/>
</linearGradient>
<linearGradient id="paint1_linear_3859_17512" x1="11.0472" y1="10.4414" x2="25.8179" y2="10.8076" gradientUnits="userSpaceOnUse">
<stop stop-color="#5936F1"/>
<stop offset="0.995389" stop-color="#2ADBDF"/>
<stop offset="0.9998" stop-color="#4BB3E7"/>
<stop offset="0.9999" stop-color="#47DAE3"/>
</linearGradient>
<linearGradient id="paint2_linear_3859_17512" x1="9.26485" y1="22.5996" x2="12.9615" y2="22.691" gradientUnits="userSpaceOnUse">
<stop stop-color="#5936F1"/>
<stop offset="0.995389" stop-color="#2ADBDF"/>
<stop offset="0.9998" stop-color="#4BB3E7"/>
<stop offset="0.9999" stop-color="#47DAE3"/>
</linearGradient>
<linearGradient id="paint3_linear_3859_17512" x1="22.6525" y1="7.76368" x2="27.9304" y2="7.89522" gradientUnits="userSpaceOnUse">
<stop stop-color="#5936F1"/>
<stop offset="0.995389" stop-color="#2ADBDF"/>
<stop offset="0.9998" stop-color="#4BB3E7"/>
<stop offset="0.9999" stop-color="#47DAE3"/>
</linearGradient>
<linearGradient id="paint4_linear_3859_17512" x1="0.622343" y1="1.62502" x2="23.0207" y2="2.04867" gradientUnits="userSpaceOnUse">
<stop stop-color="#5936F1"/>
<stop offset="0.995389" stop-color="#2ADBDF"/>
<stop offset="0.9998" stop-color="#4BB3E7"/>
<stop offset="0.9999" stop-color="#47DAE3"/>
</linearGradient>
<clipPath id="clip0_3859_17512">
<rect width="27.5955" height="30" fill="white"/>
</clipPath>
</defs>
</svg>
