<svg width="27" height="22" viewBox="0 0 27 22" fill="none" xmlns="http://www.w3.org/2000/svg">
<g id="Vector">
<path d="M22.9661 4.72781L18.9322 11.0004H21.5934C21.5934 15.4304 17.9854 19.0371 13.5537 19.0371C10.9541 19.0371 8.6458 17.7938 7.17232 15.8728L5.65401 18.2363C7.61492 20.3757 10.4218 21.7254 13.5537 21.7254C19.4813 21.7254 24.2827 16.9257 24.2827 11.0004H27L22.9661 4.72781Z" fill="#CDD4D8"/>
<path d="M13.5537 0.275391C7.62613 0.275391 2.82469 5.07504 2.82469 11.0004H0.107422L4.1413 17.273L8.17518 11.0004H5.51394C5.51394 6.57038 9.12202 2.96364 13.5537 2.96364C16.1533 2.96364 18.4616 4.20696 19.9351 6.12794L21.4534 3.76452C19.4925 1.62512 16.6856 0.275391 13.5537 0.275391Z" fill="#CDD4D8"/>
<path d="M18.5792 12.5013C18.0918 12.1429 17.1057 11.5436 15.6267 11.2244C15.0384 11.6445 14.3269 11.8965 13.5537 11.8965C12.7805 11.8965 12.069 11.6445 11.4807 11.23C10.0016 11.5492 9.01558 12.1485 8.52815 12.5069C8.30404 12.6749 8.17518 12.9382 8.17518 13.2238V14.5903H18.9322V13.2238C18.9322 12.9382 18.8033 12.6693 18.5792 12.5013Z" fill="#CDD4D8"/>
<path d="M13.5537 11.0004C15.0389 11.0004 16.2429 9.79682 16.2429 8.31214C16.2429 6.82746 15.0389 5.62389 13.5537 5.62389C12.0685 5.62389 10.8644 6.82746 10.8644 8.31214C10.8644 9.79682 12.0685 11.0004 13.5537 11.0004Z" fill="#CDD4D8"/>
</g>
</svg>
