<svg width="22" height="22" viewBox="0 0 22 22" fill="none" xmlns="http://www.w3.org/2000/svg">
<path d="M21.1885 4.84478L17.0927 0.748975C16.6532 0.309435 16.057 0.0625033 15.4354 0.0625H2.34375C1.04932 0.0625 0 1.11182 0 2.40625V19.5938C0 20.8882 1.04932 21.9375 2.34375 21.9375H19.5312C20.8257 21.9375 21.875 20.8882 21.875 19.5938V6.50205C21.875 5.88045 21.6281 5.28431 21.1885 4.84478V4.84478ZM10.9375 18.8125C9.21162 18.8125 7.8125 17.4134 7.8125 15.6875C7.8125 13.9616 9.21162 12.5625 10.9375 12.5625C12.6634 12.5625 14.0625 13.9616 14.0625 15.6875C14.0625 17.4134 12.6634 18.8125 10.9375 18.8125ZM15.625 3.94336V8.85156C15.625 9.17515 15.3626 9.4375 15.0391 9.4375H3.71094C3.38735 9.4375 3.125 9.17515 3.125 8.85156V3.77344C3.125 3.44985 3.38735 3.1875 3.71094 3.1875H14.8691C15.0246 3.1875 15.1736 3.24922 15.2834 3.35913L15.4534 3.52905C15.5078 3.58345 15.551 3.64804 15.5804 3.71913C15.6099 3.79022 15.625 3.86641 15.625 3.94336V3.94336Z" fill="#CDD4D8"/>
</svg>
