<svg width="31" height="30" viewBox="0 0 31 30" fill="none" xmlns="http://www.w3.org/2000/svg">
<path d="M21.873 8.74805H3.12305C1.40039 8.74805 0 10.1484 0 11.877V26.877C0 28.5996 1.40039 30 3.12305 30H21.873C23.6016 30 24.9961 28.5996 24.9961 26.877V11.877C25.002 10.1484 23.6016 8.74805 21.873 8.74805ZM21.252 27.498H3.75C3.05859 27.498 2.50195 26.9355 2.50195 26.25V15H22.5V26.25C22.5 26.9414 21.9375 27.498 21.252 27.498Z" fill="#BBBBBB"/>
<path d="M26.877 0H8.12695C6.4043 0 5.00391 1.40039 5.00391 3.12305V6.24609H27.5039V21.1816C28.9277 20.8945 30.0059 19.6289 30.0059 18.1172V3.11719C30 1.40039 28.5996 0 26.877 0Z" fill="#BBBBBB"/>
</svg>
