<svg width="42" height="42" viewBox="0 0 42 42" fill="none" xmlns="http://www.w3.org/2000/svg">
<rect width="42" height="42" rx="4" fill="#02BF90"/>
<path d="M29.7068 28.293L25.1678 23.754C26.3108 22.306 26.9998 20.483 26.9998 18.5C26.9998 13.813 23.1868 10 18.4999 10C13.813 10 10 13.813 10 18.5C10 23.187 13.813 27 18.4999 27C20.4839 27 22.3058 26.312 23.7538 25.168L28.2928 29.707C28.4878 29.902 28.7438 30 28.9998 30C29.2558 30 29.5118 29.902 29.7068 29.707C30.0977 29.316 30.0977 28.684 29.7068 28.293ZM12 18.5C12 14.916 14.9159 12 18.4999 12C22.0838 12 24.9998 14.916 24.9998 18.5C24.9998 22.084 22.0838 25 18.4999 25C14.9159 25 12 22.084 12 18.5Z" fill="white"/>
</svg>
