<svg width="292" height="219" viewBox="0 0 292 219" fill="none" xmlns="http://www.w3.org/2000/svg">
<rect width="292" height="219" rx="17" fill="#CDD4D8"/>
<path d="M31.9597 123.266C30.1104 123.266 28.4384 122.949 26.9437 122.316C25.4744 121.683 24.309 120.771 23.4477 119.58C22.5864 118.389 22.143 116.983 22.1177 115.362H27.8177C27.8937 116.451 28.2737 117.313 28.9577 117.946C29.667 118.579 30.6297 118.896 31.8457 118.896C33.087 118.896 34.0624 118.605 34.7717 118.022C35.481 117.414 35.8357 116.629 35.8357 115.666C35.8357 114.881 35.595 114.235 35.1137 113.728C34.6324 113.221 34.0244 112.829 33.2897 112.55C32.5804 112.246 31.5924 111.917 30.3257 111.562C28.603 111.055 27.197 110.561 26.1077 110.08C25.0437 109.573 24.119 108.826 23.3337 107.838C22.5737 106.825 22.1937 105.482 22.1937 103.81C22.1937 102.239 22.5864 100.871 23.3717 99.706C24.157 98.5407 25.259 97.654 26.6777 97.046C28.0964 96.4127 29.7177 96.096 31.5417 96.096C34.2777 96.096 36.4944 96.7673 38.1917 98.11C39.9144 99.4273 40.8644 101.277 41.0417 103.658H35.1897C35.139 102.746 34.7464 101.999 34.0117 101.416C33.3024 100.808 32.3524 100.504 31.1617 100.504C30.123 100.504 29.287 100.77 28.6537 101.302C28.0457 101.834 27.7417 102.607 27.7417 103.62C27.7417 104.329 27.9697 104.925 28.4257 105.406C28.907 105.862 29.4897 106.242 30.1737 106.546C30.883 106.825 31.871 107.154 33.1377 107.534C34.8604 108.041 36.2664 108.547 37.3557 109.054C38.445 109.561 39.3824 110.321 40.1677 111.334C40.953 112.347 41.3457 113.677 41.3457 115.324C41.3457 116.743 40.9784 118.06 40.2437 119.276C39.509 120.492 38.4324 121.467 37.0137 122.202C35.595 122.911 33.9104 123.266 31.9597 123.266ZM65.5279 112.018C65.5279 112.778 65.4773 113.462 65.3759 114.07H49.9859C50.1126 115.59 50.6446 116.781 51.5819 117.642C52.5193 118.503 53.6719 118.934 55.0399 118.934C57.0159 118.934 58.4219 118.085 59.2579 116.388H64.9959C64.3879 118.415 63.2226 120.087 61.4999 121.404C59.7773 122.696 57.6619 123.342 55.1539 123.342C53.1273 123.342 51.3033 122.899 49.6819 122.012C48.0859 121.1 46.8319 119.821 45.9199 118.174C45.0333 116.527 44.5899 114.627 44.5899 112.474C44.5899 110.295 45.0333 108.383 45.9199 106.736C46.8066 105.089 48.0479 103.823 49.6439 102.936C51.2399 102.049 53.0766 101.606 55.1539 101.606C57.1553 101.606 58.9413 102.037 60.5119 102.898C62.1079 103.759 63.3366 104.988 64.1979 106.584C65.0846 108.155 65.5279 109.966 65.5279 112.018ZM60.0179 110.498C59.9926 109.13 59.4986 108.041 58.5359 107.23C57.5733 106.394 56.3953 105.976 55.0019 105.976C53.6846 105.976 52.5699 106.381 51.6579 107.192C50.7713 107.977 50.2266 109.079 50.0239 110.498H60.0179ZM74.7311 94.88V123H69.4111V94.88H74.7311ZM99.5572 112.018C99.5572 112.778 99.5066 113.462 99.4052 114.07H84.0152C84.1419 115.59 84.6739 116.781 85.6112 117.642C86.5486 118.503 87.7012 118.934 89.0692 118.934C91.0452 118.934 92.4512 118.085 93.2872 116.388H99.0252C98.4172 118.415 97.2519 120.087 95.5292 121.404C93.8066 122.696 91.6912 123.342 89.1832 123.342C87.1566 123.342 85.3326 122.899 83.7112 122.012C82.1152 121.1 80.8612 119.821 79.9492 118.174C79.0626 116.527 78.6192 114.627 78.6192 112.474C78.6192 110.295 79.0626 108.383 79.9492 106.736C80.8359 105.089 82.0772 103.823 83.6732 102.936C85.2692 102.049 87.1059 101.606 89.1832 101.606C91.1846 101.606 92.9706 102.037 94.5412 102.898C96.1372 103.759 97.3659 104.988 98.2272 106.584C99.1139 108.155 99.5572 109.966 99.5572 112.018ZM94.0472 110.498C94.0219 109.13 93.5279 108.041 92.5652 107.23C91.6026 106.394 90.4246 105.976 89.0312 105.976C87.7139 105.976 86.5992 106.381 85.6872 107.192C84.8006 107.977 84.2559 109.079 84.0532 110.498H94.0472ZM102.072 112.474C102.072 110.295 102.516 108.395 103.402 106.774C104.289 105.127 105.518 103.861 107.088 102.974C108.659 102.062 110.458 101.606 112.484 101.606C115.094 101.606 117.247 102.265 118.944 103.582C120.667 104.874 121.82 106.698 122.402 109.054H116.664C116.36 108.142 115.841 107.433 115.106 106.926C114.397 106.394 113.51 106.128 112.446 106.128C110.926 106.128 109.723 106.685 108.836 107.8C107.95 108.889 107.506 110.447 107.506 112.474C107.506 114.475 107.95 116.033 108.836 117.148C109.723 118.237 110.926 118.782 112.446 118.782C114.6 118.782 116.006 117.819 116.664 115.894H122.402C121.82 118.174 120.667 119.985 118.944 121.328C117.222 122.671 115.068 123.342 112.484 123.342C110.458 123.342 108.659 122.899 107.088 122.012C105.518 121.1 104.289 119.833 103.402 118.212C102.516 116.565 102.072 114.653 102.072 112.474ZM132.494 106.318V116.502C132.494 117.211 132.658 117.731 132.988 118.06C133.342 118.364 133.925 118.516 134.736 118.516H137.206V123H133.862C129.378 123 127.136 120.821 127.136 116.464V106.318H124.628V101.948H127.136V96.742H132.494V101.948H137.206V106.318H132.494ZM155.407 96.476V123H150.087V96.476H155.407ZM186.807 101.644C189.391 101.644 191.468 102.442 193.039 104.038C194.635 105.609 195.433 107.813 195.433 110.65V123H190.113V111.372C190.113 109.725 189.695 108.471 188.859 107.61C188.023 106.723 186.883 106.28 185.439 106.28C183.995 106.28 182.842 106.723 181.981 107.61C181.145 108.471 180.727 109.725 180.727 111.372V123H175.407V111.372C175.407 109.725 174.989 108.471 174.153 107.61C173.317 106.723 172.177 106.28 170.733 106.28C169.264 106.28 168.098 106.723 167.237 107.61C166.401 108.471 165.983 109.725 165.983 111.372V123H160.663V101.948H165.983V104.494C166.667 103.607 167.541 102.911 168.605 102.404C169.694 101.897 170.885 101.644 172.177 101.644C173.824 101.644 175.293 101.999 176.585 102.708C177.877 103.392 178.878 104.38 179.587 105.672C180.271 104.456 181.259 103.481 182.551 102.746C183.868 102.011 185.287 101.644 186.807 101.644ZM199.113 112.398C199.113 110.27 199.531 108.383 200.367 106.736C201.229 105.089 202.381 103.823 203.825 102.936C205.295 102.049 206.929 101.606 208.727 101.606C210.298 101.606 211.666 101.923 212.831 102.556C214.022 103.189 214.972 103.987 215.681 104.95V101.948H221.039V123H215.681V119.922C214.997 120.91 214.047 121.733 212.831 122.392C211.641 123.025 210.26 123.342 208.689 123.342C206.916 123.342 205.295 122.886 203.825 121.974C202.381 121.062 201.229 119.783 200.367 118.136C199.531 116.464 199.113 114.551 199.113 112.398ZM215.681 112.474C215.681 111.182 215.428 110.08 214.921 109.168C214.415 108.231 213.731 107.521 212.869 107.04C212.008 106.533 211.083 106.28 210.095 106.28C209.107 106.28 208.195 106.521 207.359 107.002C206.523 107.483 205.839 108.193 205.307 109.13C204.801 110.042 204.547 111.131 204.547 112.398C204.547 113.665 204.801 114.779 205.307 115.742C205.839 116.679 206.523 117.401 207.359 117.908C208.221 118.415 209.133 118.668 210.095 118.668C211.083 118.668 212.008 118.427 212.869 117.946C213.731 117.439 214.415 116.73 214.921 115.818C215.428 114.881 215.681 113.766 215.681 112.474ZM234.481 101.606C236.052 101.606 237.433 101.923 238.623 102.556C239.814 103.164 240.751 103.962 241.435 104.95V101.948H246.793V123.152C246.793 125.103 246.401 126.838 245.615 128.358C244.83 129.903 243.652 131.119 242.081 132.006C240.511 132.918 238.611 133.374 236.381 133.374C233.392 133.374 230.935 132.677 229.009 131.284C227.109 129.891 226.033 127.991 225.779 125.584H231.061C231.34 126.547 231.935 127.307 232.847 127.864C233.785 128.447 234.912 128.738 236.229 128.738C237.775 128.738 239.029 128.269 239.991 127.332C240.954 126.42 241.435 125.027 241.435 123.152V119.884C240.751 120.872 239.801 121.695 238.585 122.354C237.395 123.013 236.027 123.342 234.481 123.342C232.708 123.342 231.087 122.886 229.617 121.974C228.148 121.062 226.983 119.783 226.121 118.136C225.285 116.464 224.867 114.551 224.867 112.398C224.867 110.27 225.285 108.383 226.121 106.736C226.983 105.089 228.135 103.823 229.579 102.936C231.049 102.049 232.683 101.606 234.481 101.606ZM241.435 112.474C241.435 111.182 241.182 110.08 240.675 109.168C240.169 108.231 239.485 107.521 238.623 107.04C237.762 106.533 236.837 106.28 235.849 106.28C234.861 106.28 233.949 106.521 233.113 107.002C232.277 107.483 231.593 108.193 231.061 109.13C230.555 110.042 230.301 111.131 230.301 112.398C230.301 113.665 230.555 114.779 231.061 115.742C231.593 116.679 232.277 117.401 233.113 117.908C233.975 118.415 234.887 118.668 235.849 118.668C236.837 118.668 237.762 118.427 238.623 117.946C239.485 117.439 240.169 116.73 240.675 115.818C241.182 114.881 241.435 113.766 241.435 112.474ZM271.559 112.018C271.559 112.778 271.509 113.462 271.407 114.07H256.017C256.144 115.59 256.676 116.781 257.613 117.642C258.551 118.503 259.703 118.934 261.071 118.934C263.047 118.934 264.453 118.085 265.289 116.388H271.027C270.419 118.415 269.254 120.087 267.531 121.404C265.809 122.696 263.693 123.342 261.185 123.342C259.159 123.342 257.335 122.899 255.713 122.012C254.117 121.1 252.863 119.821 251.951 118.174C251.065 116.527 250.621 114.627 250.621 112.474C250.621 110.295 251.065 108.383 251.951 106.736C252.838 105.089 254.079 103.823 255.675 102.936C257.271 102.049 259.108 101.606 261.185 101.606C263.187 101.606 264.973 102.037 266.543 102.898C268.139 103.759 269.368 104.988 270.229 106.584C271.116 108.155 271.559 109.966 271.559 112.018ZM266.049 110.498C266.024 109.13 265.53 108.041 264.567 107.23C263.605 106.394 262.427 105.976 261.033 105.976C259.716 105.976 258.601 106.381 257.689 107.192C256.803 107.977 256.258 109.079 256.055 110.498H266.049Z" fill="#797979"/>
</svg>
