<svg width="30" height="30" viewBox="0 0 30 30" fill="none" xmlns="http://www.w3.org/2000/svg">
<path d="M29.8686 13.3307C29.8167 12.9156 29.3238 12.5912 28.9086 12.5912C27.5336 12.5912 26.3142 11.787 25.8083 10.5416C25.2894 9.25738 25.6267 7.77855 26.6515 6.83157C26.9758 6.53321 27.0147 6.04026 26.7423 5.70299C26.0418 4.8079 25.2375 4.00362 24.3684 3.30312C24.0311 3.0307 23.5252 3.06962 23.2268 3.39393C22.3317 4.37982 20.7232 4.75601 19.4908 4.23712C18.1936 3.69229 17.3893 2.38209 17.4671 0.98109C17.4931 0.540034 17.1688 0.150866 16.7277 0.0989774C15.6121 -0.030745 14.4835 -0.030745 13.3549 0.0860051C12.9268 0.137894 12.6025 0.514089 12.6155 0.942173C12.6674 2.3302 11.8372 3.61446 10.5659 4.14632C9.33353 4.65223 7.75092 4.27604 6.85583 3.30312C6.55747 2.97882 6.06452 2.9399 5.72725 3.21232C4.83216 3.91282 4.01491 4.73007 3.30144 5.61218C3.02902 5.96243 3.06794 6.45538 3.39224 6.75374C4.43002 7.70071 4.7673 9.20549 4.23544 10.4897C3.71655 11.7221 2.4323 12.5134 0.966432 12.5134C0.486459 12.5004 0.149181 12.8118 0.0972918 13.2528C-0.0324306 14.3814 -0.0324306 15.523 0.0972918 16.6645C0.149181 17.0926 0.655098 17.4039 1.08318 17.4039C2.39338 17.365 3.63871 18.1823 4.17058 19.4536C4.68947 20.7378 4.35219 22.2167 3.32738 23.1636C3.00307 23.462 2.96416 23.9549 3.23657 24.2922C3.93708 25.1743 4.72838 25.9916 5.6105 26.6921C5.96075 26.9645 6.45369 26.9256 6.75205 26.6013C7.64714 25.6154 9.2557 25.2392 10.4881 25.7581C11.7853 26.3029 12.6025 27.6131 12.5117 29.0141C12.4858 29.4552 12.8101 29.8443 13.2511 29.8962C13.8219 29.9611 14.4057 30 14.9765 30C15.5213 30 16.0791 29.9741 16.6239 29.9092C17.065 29.8573 17.3763 29.4811 17.3633 29.053C17.3115 27.665 18.1417 26.3807 19.413 25.8489C20.6453 25.343 22.2409 25.7192 23.123 26.6921C23.4214 27.0164 23.9143 27.0553 24.2516 26.7829C25.1467 26.0824 25.9639 25.2781 26.6774 24.383C26.9498 24.0457 26.9109 23.5398 26.5866 23.2415C25.5488 22.2945 25.1986 20.7897 25.7434 19.5055C26.2493 18.2861 27.4817 17.4688 28.8049 17.4688H28.9865C29.4146 17.5077 29.8167 17.1705 29.8686 16.7294C29.9983 15.6138 29.9983 14.4593 29.8686 13.3307ZM14.9635 23.6436C10.1897 23.6436 6.311 19.7779 6.311 14.9911C6.311 10.2044 10.1897 6.3516 14.9635 6.3516C19.7373 6.3516 23.616 10.2173 23.616 15.0041C23.616 16.6256 23.1749 18.1434 22.3966 19.4406L18.6087 15.6527C18.8811 15.0041 19.0238 14.3036 19.0238 13.5771C19.0238 12.1632 18.466 10.827 17.4671 9.82816C16.4683 8.8293 15.1321 8.27149 13.7181 8.27149C13.2511 8.27149 12.7712 8.33635 12.3171 8.4531C12.1226 8.50499 11.9539 8.67363 11.902 8.86821C11.8501 9.07577 11.915 9.28333 12.0707 9.43899C12.0707 9.43899 13.9387 11.32 14.5613 11.9426C14.6262 12.0075 14.6262 12.1632 14.6132 12.2151V12.254C14.5484 12.9415 14.4316 13.7717 14.3278 14.0831C14.3149 14.096 14.3019 14.109 14.2889 14.122C14.276 14.1349 14.263 14.1479 14.25 14.1609C13.9257 14.2647 13.0955 14.3814 12.395 14.4463L12.369 14.4593C12.369 14.4593 12.3561 14.4593 12.3431 14.4593C12.2653 14.4593 12.1615 14.4333 12.0577 14.3425C11.4091 13.6939 9.60595 11.9037 9.60595 11.9037C9.45028 11.7481 9.28164 11.7091 9.16489 11.7091C8.90545 11.7091 8.67194 11.8907 8.60708 12.1632C8.11414 13.9923 8.63303 15.964 9.96917 17.3002C10.968 18.299 12.3042 18.8568 13.7181 18.8568C14.4446 18.8568 15.1451 18.7141 15.7937 18.4417L19.6205 22.2685C18.2714 23.1377 16.6758 23.6436 14.9635 23.6436Z" fill="#BBBBBB"/>
</svg>
