<svg width="30" height="30" viewBox="0 0 30 30" fill="none" xmlns="http://www.w3.org/2000/svg">
<path d="M24.9211 0H5.07886C2.27129 0 0 2.27129 0 5.07886V6.92744H29.9937V5.07886C29.9937 2.27129 27.7224 0 24.9211 0ZM4.61199 4.61199C3.97476 4.61199 3.46372 4.10095 3.46372 3.46372C3.46372 2.8265 3.97476 2.30915 4.61199 2.30915C5.24921 2.30915 5.76656 2.8265 5.76656 3.46372C5.76656 4.10095 5.24921 4.61199 4.61199 4.61199ZM8.07571 4.61199C7.43849 4.61199 6.92113 4.09464 6.92113 3.45741C6.92113 2.82019 7.43849 2.30284 8.07571 2.30284C8.71293 2.30284 9.23028 2.82019 9.23028 3.45741C9.23028 4.09464 8.71293 4.61199 8.07571 4.61199Z" fill="#BBBBBB"/>
<path d="M16.9083 21.5142C17.9557 20.4606 17.9493 18.7571 16.8957 17.7098C15.8421 16.6625 14.1386 16.6688 13.0913 17.7224C12.044 18.776 12.0503 20.4795 13.1039 21.5268C14.1702 22.53 15.8421 22.5237 16.9083 21.5142Z" fill="#BBBBBB"/>
<path d="M0 24.9211C0 27.7224 2.27129 30 5.07886 30H24.9211C27.7224 30 30 27.7287 30 24.9211V9.23027H0V24.9211ZM9.23028 18.4606H10.1514C10.2713 17.9432 10.4795 17.4511 10.7571 17.0031L10.1136 16.3596C9.653 15.918 9.64038 15.1861 10.0883 14.7255C10.5363 14.265 11.2618 14.2524 11.7224 14.7003C11.735 14.7066 11.7413 14.7192 11.7476 14.7255L12.3975 15.3754C12.8454 15.0978 13.3375 14.8959 13.8549 14.776V13.8549C13.8549 13.2177 14.3722 12.7003 15.0095 12.7003C15.6467 12.7003 16.164 13.2177 16.164 13.8549V14.776C16.6814 14.8959 17.1735 15.1041 17.6214 15.3817L18.265 14.7382C18.7066 14.2776 19.4385 14.265 19.8991 14.7129C20.3596 15.1609 20.3722 15.8864 19.9243 16.347C19.918 16.3596 19.9054 16.3659 19.8991 16.3722L19.2429 17.0031C19.5205 17.4511 19.7224 17.9432 19.8423 18.4606H20.7634C21.4006 18.4606 21.918 18.9779 21.918 19.6151C21.918 20.2524 21.4006 20.7697 20.7634 20.7697H19.8423C19.7224 21.2871 19.5142 21.7792 19.2366 22.2271L19.8801 22.8706C20.3407 23.3123 20.3533 24.0442 19.9054 24.5047C19.4637 24.9653 18.7319 24.9779 18.2713 24.53C18.2587 24.5236 18.2524 24.511 18.2461 24.5047L17.5962 23.8549C17.1483 24.1325 16.6561 24.3344 16.1388 24.4542V25.3754C16.1388 26.0126 15.6215 26.53 14.9842 26.53C14.347 26.53 13.8297 26.0126 13.8297 25.3754V24.4542C13.3123 24.3344 12.8202 24.1262 12.3722 23.8486L11.735 24.4984C11.3123 24.9716 10.5804 25.0158 10.1073 24.593C9.63407 24.1703 9.5899 23.4385 10.0126 22.9653C10.0442 22.9337 10.0694 22.9022 10.1009 22.877L10.7508 22.2271C10.4732 21.7729 10.2713 21.2807 10.1514 20.7697H9.23028C8.59306 20.7697 8.07571 20.2524 8.07571 19.6151C8.07571 18.9779 8.59306 18.4606 9.23028 18.4606Z" fill="#BBBBBB"/>
</svg>
