<svg width="16" height="16" viewBox="0 0 16 16" fill="none" xmlns="http://www.w3.org/2000/svg">
<path d="M12.8887 9.77816C12.3847 9.77858 11.8883 9.90163 11.4424 10.1367C10.9965 10.3718 10.6145 10.7118 10.3294 11.1275L5.99007 9.16817C6.29828 8.42392 6.29948 7.58796 5.99341 6.84283L10.3267 4.8735C10.7493 5.48467 11.377 5.92414 12.0958 6.1122C12.8146 6.30025 13.5771 6.22443 14.2448 5.8985C14.9126 5.57256 15.4414 5.0181 15.7353 4.33568C16.0292 3.65325 16.0689 2.88808 15.847 2.17895C15.6251 1.46982 15.1564 0.863696 14.5259 0.470535C13.8954 0.0773743 13.1449 -0.0767867 12.4104 0.0360157C11.676 0.148818 11.0063 0.521112 10.5229 1.08537C10.0394 1.64962 9.77425 2.36846 9.77541 3.1115C9.77823 3.28736 9.79607 3.46267 9.82874 3.6355L5.22207 5.72883C4.77963 5.31431 4.22574 5.03806 3.62845 4.93401C3.03117 4.82996 2.41649 4.90264 1.85994 5.14314C1.3034 5.38363 0.829222 5.78146 0.495669 6.28774C0.162117 6.79402 -0.0162843 7.38671 -0.0176164 7.993C-0.0189485 8.59928 0.156846 9.19275 0.488171 9.70049C0.819496 10.2082 1.29192 10.6081 1.8474 10.8511C2.40289 11.094 3.01724 11.1694 3.61498 11.068C4.21272 10.9666 4.76782 10.6927 5.21207 10.2802L9.83074 12.3655C9.79866 12.5382 9.78104 12.7132 9.77807 12.8888C9.77794 13.5043 9.96032 14.1059 10.3021 14.6176C10.644 15.1294 11.1299 15.5283 11.6984 15.7639C12.267 15.9994 12.8926 16.0611 13.4962 15.9411C14.0998 15.8211 14.6543 15.5247 15.0895 15.0895C15.5246 14.6544 15.821 14.0999 15.941 13.4963C16.061 12.8927 15.9993 12.2671 15.7638 11.6985C15.5282 11.13 15.1293 10.6441 14.6176 10.3022C14.1058 9.96041 13.5042 9.77803 12.8887 9.77816ZM12.8887 1.3335C13.2404 1.33337 13.5842 1.43753 13.8767 1.63282C14.1692 1.82811 14.3972 2.10575 14.5319 2.43063C14.6665 2.7555 14.7019 3.11302 14.6333 3.45796C14.5648 3.8029 14.3955 4.11977 14.1469 4.3685C13.8982 4.61722 13.5814 4.78663 13.2365 4.85529C12.8916 4.92394 12.5341 4.88877 12.2091 4.75422C11.8842 4.61967 11.6065 4.39178 11.4111 4.09937C11.2157 3.80697 11.1114 3.46318 11.1114 3.1115C11.1118 2.64017 11.2991 2.18823 11.6323 1.85489C11.9655 1.52154 12.4174 1.33403 12.8887 1.3335ZM3.11141 9.77816C2.75972 9.7783 2.4159 9.67413 2.12342 9.47884C1.83094 9.28355 1.60295 9.00591 1.46827 8.68104C1.3336 8.35616 1.29829 7.99865 1.36682 7.6537C1.43535 7.30876 1.60464 6.99189 1.85327 6.74317C2.1019 6.49444 2.41871 6.32504 2.76362 6.25638C3.10854 6.18772 3.46607 6.22289 3.791 6.35744C4.11592 6.492 4.39365 6.71989 4.58905 7.01229C4.78444 7.3047 4.88874 7.64848 4.88874 8.00016C4.88821 8.47144 4.70081 8.92327 4.36763 9.25658C4.03445 9.58989 3.58268 9.77746 3.11141 9.77816ZM12.8887 14.6668C12.5371 14.6668 12.1933 14.5626 11.9009 14.3672C11.6085 14.1718 11.3807 13.8941 11.2461 13.5692C11.1115 13.2444 11.0763 12.8869 11.1449 12.542C11.2135 12.1971 11.3828 11.8803 11.6315 11.6316C11.8802 11.3829 12.197 11.2136 12.5419 11.145C12.8868 11.0764 13.2443 11.1116 13.5692 11.2462C13.894 11.3807 14.1717 11.6086 14.3671 11.901C14.5625 12.1934 14.6667 12.5372 14.6667 12.8888C14.6664 13.3603 14.4789 13.8123 14.1456 14.1457C13.8122 14.479 13.3602 14.6665 12.8887 14.6668Z" fill="#181818"/>
</svg>
