<svg width="44" height="31" viewBox="0 0 44 31" fill="none" xmlns="http://www.w3.org/2000/svg">
<path d="M4.57466 24.416V25.32H3.08666V30H1.96666V25.32H0.478656V24.416H4.57466ZM6.51184 26.256C6.65584 26.0213 6.84251 25.8373 7.07184 25.704C7.30651 25.5707 7.57318 25.504 7.87184 25.504V26.68H7.57584C7.22384 26.68 6.95718 26.7627 6.77584 26.928C6.59984 27.0933 6.51184 27.3813 6.51184 27.792V30H5.39184V25.568H6.51184V26.256ZM8.33822 27.768C8.33822 27.32 8.42622 26.9227 8.60222 26.576C8.78355 26.2293 9.02622 25.9627 9.33022 25.776C9.63955 25.5893 9.98355 25.496 10.3622 25.496C10.6929 25.496 10.9809 25.5627 11.2262 25.696C11.4769 25.8293 11.6769 25.9973 11.8262 26.2V25.568H12.9542V30H11.8262V29.352C11.6822 29.56 11.4822 29.7333 11.2262 29.872C10.9756 30.0053 10.6849 30.072 10.3542 30.072C9.98089 30.072 9.63955 29.976 9.33022 29.784C9.02622 29.592 8.78355 29.3227 8.60222 28.976C8.42622 28.624 8.33822 28.2213 8.33822 27.768ZM11.8262 27.784C11.8262 27.512 11.7729 27.28 11.6662 27.088C11.5596 26.8907 11.4156 26.7413 11.2342 26.64C11.0529 26.5333 10.8582 26.48 10.6502 26.48C10.4422 26.48 10.2502 26.5307 10.0742 26.632C9.89822 26.7333 9.75422 26.8827 9.64222 27.08C9.53555 27.272 9.48222 27.5013 9.48222 27.768C9.48222 28.0347 9.53555 28.2693 9.64222 28.472C9.75422 28.6693 9.89822 28.8213 10.0742 28.928C10.2556 29.0347 10.4476 29.088 10.6502 29.088C10.8582 29.088 11.0529 29.0373 11.2342 28.936C11.4156 28.8293 11.5596 28.68 11.6662 28.488C11.7729 28.2907 11.8262 28.056 11.8262 27.784ZM16.5041 25.504C17.0321 25.504 17.4588 25.672 17.7841 26.008C18.1094 26.3387 18.2721 26.8027 18.2721 27.4V30H17.1521V27.552C17.1521 27.2 17.0641 26.9307 16.8881 26.744C16.7121 26.552 16.4721 26.456 16.1681 26.456C15.8588 26.456 15.6134 26.552 15.4321 26.744C15.2561 26.9307 15.1681 27.2 15.1681 27.552V30H14.0481V25.568H15.1681V26.12C15.3174 25.928 15.5068 25.7787 15.7361 25.672C15.9708 25.56 16.2268 25.504 16.5041 25.504ZM21.0332 30.072C20.6705 30.072 20.3452 30.008 20.0572 29.88C19.7692 29.7467 19.5398 29.568 19.3692 29.344C19.2038 29.12 19.1132 28.872 19.0972 28.6H20.2252C20.2465 28.7707 20.3292 28.912 20.4732 29.024C20.6225 29.136 20.8065 29.192 21.0252 29.192C21.2385 29.192 21.4038 29.1493 21.5212 29.064C21.6438 28.9787 21.7052 28.8693 21.7052 28.736C21.7052 28.592 21.6305 28.4853 21.4812 28.416C21.3372 28.3413 21.1052 28.2613 20.7852 28.176C20.4545 28.096 20.1825 28.0133 19.9692 27.928C19.7612 27.8427 19.5798 27.712 19.4252 27.536C19.2758 27.36 19.2012 27.1227 19.2012 26.824C19.2012 26.5787 19.2705 26.3547 19.4092 26.152C19.5532 25.9493 19.7558 25.7893 20.0172 25.672C20.2838 25.5547 20.5958 25.496 20.9532 25.496C21.4812 25.496 21.9025 25.6293 22.2172 25.896C22.5318 26.1573 22.7052 26.512 22.7372 26.96H21.6652C21.6492 26.784 21.5745 26.6453 21.4412 26.544C21.3132 26.4373 21.1398 26.384 20.9212 26.384C20.7185 26.384 20.5612 26.4213 20.4492 26.496C20.3425 26.5707 20.2892 26.6747 20.2892 26.808C20.2892 26.9573 20.3638 27.072 20.5132 27.152C20.6625 27.2267 20.8945 27.304 21.2092 27.384C21.5292 27.464 21.7932 27.5467 22.0012 27.632C22.2092 27.7173 22.3878 27.8507 22.5372 28.032C22.6918 28.208 22.7718 28.4427 22.7772 28.736C22.7772 28.992 22.7052 29.2213 22.5612 29.424C22.4225 29.6267 22.2198 29.7867 21.9532 29.904C21.6918 30.016 21.3852 30.072 21.0332 30.072ZM23.4085 27.784C23.4085 27.3253 23.5019 26.9253 23.6885 26.584C23.8752 26.2373 24.1339 25.9707 24.4645 25.784C24.7952 25.592 25.1739 25.496 25.6005 25.496C26.1499 25.496 26.6032 25.6347 26.9605 25.912C27.3232 26.184 27.5659 26.568 27.6885 27.064H26.4805C26.4165 26.872 26.3072 26.7227 26.1525 26.616C26.0032 26.504 25.8165 26.448 25.5925 26.448C25.2725 26.448 25.0192 26.5653 24.8325 26.8C24.6459 27.0293 24.5525 27.3573 24.5525 27.784C24.5525 28.2053 24.6459 28.5333 24.8325 28.768C25.0192 28.9973 25.2725 29.112 25.5925 29.112C26.0459 29.112 26.3419 28.9093 26.4805 28.504H27.6885C27.5659 28.984 27.3232 29.3653 26.9605 29.648C26.5979 29.9307 26.1445 30.072 25.6005 30.072C25.1739 30.072 24.7952 29.9787 24.4645 29.792C24.1339 29.6 23.8752 29.3333 23.6885 28.992C23.5019 28.6453 23.4085 28.2427 23.4085 27.784ZM29.629 26.256C29.773 26.0213 29.9597 25.8373 30.189 25.704C30.4237 25.5707 30.6904 25.504 30.989 25.504V26.68H30.693C30.341 26.68 30.0744 26.7627 29.893 26.928C29.717 27.0933 29.629 27.3813 29.629 27.792V30H28.509V25.568H29.629V26.256ZM32.3114 25.04C32.1141 25.04 31.9487 24.9787 31.8154 24.856C31.6874 24.728 31.6234 24.5707 31.6234 24.384C31.6234 24.1973 31.6874 24.0427 31.8154 23.92C31.9487 23.792 32.1141 23.728 32.3114 23.728C32.5087 23.728 32.6714 23.792 32.7994 23.92C32.9327 24.0427 32.9994 24.1973 32.9994 24.384C32.9994 24.5707 32.9327 24.728 32.7994 24.856C32.6714 24.9787 32.5087 25.04 32.3114 25.04ZM32.8634 25.568V30H31.7434V25.568H32.8634ZM35.09 26.216C35.234 26.0027 35.4313 25.8293 35.682 25.696C35.938 25.5627 36.2286 25.496 36.554 25.496C36.9326 25.496 37.274 25.5893 37.578 25.776C37.8873 25.9627 38.13 26.2293 38.306 26.576C38.4873 26.9173 38.578 27.3147 38.578 27.768C38.578 28.2213 38.4873 28.624 38.306 28.976C38.13 29.3227 37.8873 29.592 37.578 29.784C37.274 29.976 36.9326 30.072 36.554 30.072C36.2233 30.072 35.9326 30.008 35.682 29.88C35.4366 29.7467 35.2393 29.576 35.09 29.368V30H33.97V24.08H35.09V26.216ZM37.434 27.768C37.434 27.5013 37.378 27.272 37.266 27.08C37.1593 26.8827 37.0153 26.7333 36.834 26.632C36.658 26.5307 36.466 26.48 36.258 26.48C36.0553 26.48 35.8633 26.5333 35.682 26.64C35.506 26.7413 35.362 26.8907 35.25 27.088C35.1433 27.2853 35.09 27.5173 35.09 27.784C35.09 28.0507 35.1433 28.2827 35.25 28.48C35.362 28.6773 35.506 28.8293 35.682 28.936C35.8633 29.0373 36.0553 29.088 36.258 29.088C36.466 29.088 36.658 29.0347 36.834 28.928C37.0153 28.8213 37.1593 28.6693 37.266 28.472C37.378 28.2747 37.434 28.04 37.434 27.768ZM43.5118 27.688C43.5118 27.848 43.5012 27.992 43.4798 28.12H40.2398C40.2665 28.44 40.3785 28.6907 40.5758 28.872C40.7732 29.0533 41.0158 29.144 41.3038 29.144C41.7198 29.144 42.0158 28.9653 42.1918 28.608H43.3998C43.2718 29.0347 43.0265 29.3867 42.6638 29.664C42.3012 29.936 41.8558 30.072 41.3278 30.072C40.9012 30.072 40.5172 29.9787 40.1758 29.792C39.8398 29.6 39.5758 29.3307 39.3838 28.984C39.1972 28.6373 39.1038 28.2373 39.1038 27.784C39.1038 27.3253 39.1972 26.9227 39.3838 26.576C39.5705 26.2293 39.8318 25.9627 40.1678 25.776C40.5038 25.5893 40.8905 25.496 41.3278 25.496C41.7492 25.496 42.1252 25.5867 42.4558 25.768C42.7918 25.9493 43.0505 26.208 43.2318 26.544C43.4185 26.8747 43.5118 27.256 43.5118 27.688ZM42.3518 27.368C42.3465 27.08 42.2425 26.8507 42.0398 26.68C41.8372 26.504 41.5892 26.416 41.2958 26.416C41.0185 26.416 40.7838 26.5013 40.5918 26.672C40.4052 26.8373 40.2905 27.0693 40.2478 27.368H42.3518Z" fill="#BBBBBB"/>
<g clip-path="url(#clip0_1780_7813)">
<path d="M14.8322 7.50195C14.3751 7.50195 14 7.87703 14 8.33415C14.0039 12.1513 16.8756 15.359 20.6693 15.7848V18.3361H19.001C18.5399 18.3361 18.1688 18.7112 18.1688 19.1683C18.1688 19.6293 18.5439 20.0005 19.001 20.0005H24.002C24.463 20.0005 24.8341 19.6254 24.8341 19.1683C24.8341 18.7073 24.4591 18.3361 24.002 18.3361H22.3337V15.7848C26.1274 15.3551 28.9951 12.1513 29.0029 8.33415C29.0029 7.87312 28.6279 7.50195 28.1707 7.50195C27.7097 7.50195 27.3385 7.87703 27.3385 8.33415C27.3385 11.5574 24.7248 14.1673 21.5054 14.1673C18.286 14.1673 15.6683 11.5574 15.6683 8.33415C15.6683 7.87703 15.2932 7.50195 14.8322 7.50195Z" fill="#BBBBBB"/>
<path d="M21.5018 12.5024C23.803 12.4985 25.6667 10.6349 25.6706 8.33366V4.16878C25.6706 1.86755 23.803 0 21.5018 0C19.2006 0 17.333 1.86755 17.333 4.16878V8.33757C17.3369 10.6349 19.2006 12.4985 21.5018 12.5024ZM19.0013 4.16878C19.0013 2.78961 20.1226 1.66829 21.5018 1.66829C22.881 1.66829 24.0023 2.78961 24.0023 4.16878V8.33757C24.0023 9.71674 22.881 10.8381 21.5018 10.8381C20.1226 10.8381 19.0013 9.71674 19.0013 8.33757V4.16878Z" fill="#BBBBBB"/>
</g>
<defs>
<clipPath id="clip0_1780_7813">
<rect width="17.9258" height="20" fill="white" transform="translate(13)"/>
</clipPath>
</defs>
</svg>
