<svg width="18" height="18" viewBox="0 0 18 18" fill="none" xmlns="http://www.w3.org/2000/svg">
<path d="M15.8873 6.85433L10.2877 1.25548C9.47867 0.446468 8.40228 0 7.25818 0H3.42995C1.53941 0 0.00195312 1.53746 0.00195312 3.428V7.25531C0.00195312 8.39941 0.447584 9.47581 1.25659 10.2857L6.85623 15.8845C7.66524 16.6935 8.74163 17.14 9.88573 17.14C11.0307 17.14 12.1062 16.6935 12.9161 15.8845L15.8865 12.9141C17.5576 11.2438 17.5576 8.52462 15.8873 6.85433ZM14.6755 11.7024L11.7051 14.6727C10.7342 15.6428 9.04158 15.6445 8.06889 14.6727L2.46925 9.07393C1.98334 8.58801 1.71595 7.94177 1.71595 7.25531V3.428C1.71595 2.48273 2.48468 1.714 3.42995 1.714H7.25732C7.93435 1.714 8.59595 1.98826 9.07502 2.46733L14.6747 8.06607C15.6773 9.06876 15.6773 10.6997 14.6755 11.7024ZM6.00095 4.7135C6.00095 5.4231 5.42505 5.999 4.71545 5.999C4.00586 5.999 3.42995 5.4231 3.42995 4.7135C3.42995 4.0039 4.00586 3.428 4.71545 3.428C5.42505 3.428 6.00095 4.0039 6.00095 4.7135Z" fill="#02BF90"/>
</svg>
