<svg width="4" height="19" viewBox="0 0 4 19" fill="none" xmlns="http://www.w3.org/2000/svg">
<g opacity="0.5">
<path d="M2 10.4005C2.55228 10.4005 3 9.93289 3 9.35603C3 8.77916 2.55228 8.31152 2 8.31152C1.44772 8.31152 1 8.77916 1 9.35603C1 9.93289 1.44772 10.4005 2 10.4005Z" stroke="#181818" stroke-width="2" stroke-linecap="round" stroke-linejoin="round"/>
<path d="M2 3.08901C2.55228 3.08901 3 2.62137 3 2.04451C3 1.46764 2.55228 1 2 1C1.44772 1 1 1.46764 1 2.04451C1 2.62137 1.44772 3.08901 2 3.08901Z" stroke="#181818" stroke-width="2" stroke-linecap="round" stroke-linejoin="round"/>
<path d="M2 17.7121C2.55228 17.7121 3 17.2444 3 16.6676C3 16.0907 2.55228 15.623 2 15.623C1.44772 15.623 1 16.0907 1 16.6676C1 17.2444 1.44772 17.7121 2 17.7121Z" stroke="#181818" stroke-width="2" stroke-linecap="round" stroke-linejoin="round"/>
</g>
</svg>
