<svg width="38" height="38" viewBox="0 0 38 38" fill="none" xmlns="http://www.w3.org/2000/svg">
<rect opacity="0.1" x="1.5" y="1.5" width="35" height="35" rx="11.5" fill="#FFA873" stroke="white" stroke-width="3"/>
<path d="M13.2213 16.5016C14.0674 15.2098 15.3871 14.2572 16.9309 13.8839C17.0498 13.8554 17.1478 13.7712 17.1937 13.6581C17.2399 13.5448 17.2287 13.4163 17.1639 13.3124C16.6697 12.5246 15.7954 12 14.7966 12C13.2525 12 12 13.2518 12 14.7959C12 15.4513 12.2264 16.0533 12.6046 16.5294C12.6803 16.6254 12.7976 16.6785 12.9198 16.673C13.0421 16.6674 13.1545 16.6035 13.2213 16.5016Z" fill="#FFA873"/>
<path d="M23.316 12C22.3218 12 21.4504 12.5197 20.9553 13.3023C20.8897 13.4058 20.8783 13.5353 20.9245 13.6493C20.971 13.7637 21.0693 13.8476 21.1896 13.8757C22.7376 14.2401 24.0619 15.1862 24.9152 16.4737C24.983 16.576 25.0961 16.6392 25.219 16.6435C25.3418 16.6481 25.4585 16.593 25.5339 16.4957C25.896 16.0251 26.1126 15.4366 26.1126 14.7962C26.1116 13.2518 24.8601 12 23.316 12Z" fill="#FFA873"/>
<path d="M25.2387 20.5627C25.2387 19.4833 24.9579 18.4687 24.4683 17.5859C23.5609 15.9507 21.9313 14.7753 20.0133 14.481C19.7075 14.4341 19.3972 14.4023 19.0783 14.4023C18.7454 14.4023 18.421 14.4364 18.1021 14.4875C16.1923 14.7939 14.5709 15.9743 13.673 17.6115C13.1923 18.4884 12.918 19.4938 12.918 20.5627C12.918 22.3932 13.7251 24.0353 14.9966 25.1639L14.4775 25.895C14.254 26.2099 14.3281 26.6458 14.643 26.8699C14.7659 26.9571 14.9071 26.9994 15.047 26.9994C15.2659 26.9994 15.4815 26.8968 15.6175 26.7051L16.1363 25.9743C17.0109 26.4518 18.0133 26.7238 19.0783 26.7238C20.143 26.7238 21.1455 26.4518 22.0201 25.9743L22.5388 26.7051C22.6752 26.8971 22.8905 26.9994 23.1094 26.9994C23.2493 26.9994 23.3902 26.9571 23.5131 26.8699C23.828 26.6458 23.9024 26.2099 23.6789 25.895L23.1598 25.1639C24.4313 24.0353 25.2387 22.3932 25.2387 20.5627ZM19.0787 25.0004C16.6314 25.0004 14.641 23.01 14.641 20.5627C14.641 19.7998 14.8347 19.0819 15.1748 18.454C15.8223 17.2599 17.0034 16.3997 18.3948 16.1831C18.6183 16.1483 18.8454 16.1247 19.0787 16.1247C19.2982 16.1247 19.5129 16.146 19.7242 16.1772C21.1274 16.3829 22.3212 17.2432 22.9763 18.4425C23.3204 19.0727 23.516 19.7946 23.516 20.5624C23.516 23.01 21.5256 25.0004 19.0787 25.0004Z" fill="#FFA873"/>
<path d="M21.5647 21.6005L19.8718 20.5551C19.8367 20.3572 19.7296 20.1865 19.5792 20.0655L19.6565 17.9414C19.666 17.6701 19.4543 17.4423 19.1833 17.4322C18.9129 17.4197 18.6842 17.634 18.6741 17.9054L18.5964 20.0318C18.3863 20.1799 18.248 20.4237 18.248 20.7006C18.248 21.1532 18.6147 21.5195 19.0673 21.5195C19.1961 21.5195 19.3163 21.4871 19.4245 21.4343L21.0482 22.4377C21.1288 22.4869 21.2183 22.5108 21.3061 22.5108C21.4709 22.5108 21.6315 22.4282 21.7249 22.2778C21.8678 22.0461 21.7957 21.7433 21.5647 21.6005Z" fill="#FFA873"/>
</svg>
