<svg width="21" height="21" viewBox="0 0 21 21" fill="none" xmlns="http://www.w3.org/2000/svg">
<g clipPath="url(#clip0_3859_24076)">
<path d="M8.0263 10.9963C7.99349 10.8281 6.83275 5.02852 6.79583 4.84395C6.73841 4.55684 6.48411 4.34766 6.1929 4.34766H4.96243C4.66712 4.34766 4.41693 4.55273 4.3595 4.84395C4.32259 5.03262 3.16185 10.8363 3.12904 10.9963C3.06341 11.3285 3.27669 11.6525 3.61302 11.7182C3.94525 11.7838 4.26927 11.5705 4.339 11.2342L4.73275 9.26953H6.43079L6.82454 11.2342C6.89017 11.5664 7.21419 11.7838 7.54642 11.7182C7.87864 11.6525 8.09193 11.3285 8.0263 10.9963ZM4.97474 8.03906L5.46693 5.57812H5.68841L6.1806 8.03906H4.97474Z" fill="#797979"/>
<path d="M17.8809 9.26953H16.0352V8.6543C16.0352 8.31387 15.7604 8.03906 15.4199 8.03906C15.0795 8.03906 14.8047 8.31387 14.8047 8.6543V9.26953H12.959C12.6186 9.26953 12.3438 9.54434 12.3438 9.88477C12.3438 10.2252 12.6186 10.5 12.959 10.5H13.1066C13.4553 11.632 13.9844 12.5016 14.5668 13.1988C14.0951 13.6295 13.6152 13.9863 13.1887 14.3268C12.9221 14.54 12.8811 14.9256 13.0943 15.1922C13.3076 15.4588 13.6932 15.4998 13.9598 15.2865C14.3863 14.942 14.9031 14.5646 15.4199 14.0848C15.9408 14.5605 16.4535 14.942 16.8801 15.2865C17.1467 15.4998 17.5322 15.4547 17.7455 15.1922C17.9588 14.9256 17.9137 14.54 17.6512 14.3268C17.2246 13.9863 16.7488 13.6336 16.273 13.1988C16.8555 12.5016 17.3805 11.632 17.7332 10.5H17.8809C18.2213 10.5 18.4961 10.2252 18.4961 9.88477C18.4961 9.54434 18.2213 9.26953 17.8809 9.26953ZM15.4199 12.2924C15.0262 11.8002 14.6734 11.2096 14.4068 10.4959H16.433C16.1664 11.2137 15.8137 11.8002 15.4199 12.2924Z" fill="#797979"/>
<path d="M19.1543 3.73242H10.2785L10.016 1.61602C9.90117 0.693164 9.11367 0 8.18262 0H1.8457C0.828516 0 0 0.828516 0 1.8457V15.4219C0 16.4391 0.828516 17.2676 1.8457 17.2676H7.03418L7.29258 19.384C7.40742 20.3027 8.19492 21 9.12598 21H19.1543C20.1715 21 21 20.1715 21 19.1543V5.57812C21 4.56094 20.1715 3.73242 19.1543 3.73242ZM1.8457 16.0371C1.50527 16.0371 1.23047 15.7623 1.23047 15.4219V1.8457C1.23047 1.50527 1.50527 1.23047 1.8457 1.23047H8.18262C8.49023 1.23047 8.75273 1.46016 8.79375 1.76777C8.88398 2.48145 10.4836 15.3275 10.5738 16.0371H1.8457ZM8.47793 18.941L8.27285 17.2676H9.92578L8.47793 18.941ZM19.7695 19.1543C19.7695 19.4947 19.4947 19.7695 19.1543 19.7695H9.38848L11.7305 17.0584C11.8494 16.923 11.9027 16.7426 11.8781 16.5662L10.4303 4.96289H19.1543C19.4947 4.96289 19.7695 5.2377 19.7695 5.57812V19.1543Z" fill="#797979"/>
</g>
<defs>
<clipPath id="clip0_3859_24076">
<rect width="21" height="21" fill="white"/>
</clipPath>
</defs>
</svg>
