<svg width="15" height="15" viewBox="0 0 15 15" fill="none" xmlns="http://www.w3.org/2000/svg">
<path d="M7.49833 0C3.35231 0 0 3.35231 0 7.49833C0 11.6443 3.35231 15 7.49833 15C11.6443 15 15 11.6443 15 7.49833C15 3.35231 11.6443 0 7.49833 0ZM1.41996 4.17281C2.05626 3.01072 3.01741 2.04956 4.1795 1.41326C4.33691 1.34293 4.44407 1.42666 4.48091 1.50368C4.53784 1.61085 4.49766 1.74481 4.39049 1.80174C3.30208 2.39451 2.40455 3.29873 1.80844 4.38714C1.75151 4.49766 1.6142 4.53784 1.50368 4.47756C1.39652 4.41728 1.35968 4.27997 1.41996 4.17281ZM1.58741 7.44809C1.58741 4.17281 4.24983 1.50703 7.52847 1.50703C10.8071 1.50703 13.4662 4.16946 13.4662 7.44809C13.4662 10.7267 10.8038 13.3891 7.52847 13.3891C4.25318 13.3891 1.58741 10.7267 1.58741 7.44809ZM10.8439 13.5733C10.7368 13.6303 10.6028 13.5934 10.5459 13.4863C10.4856 13.3791 10.5258 13.2418 10.633 13.1849C11.7214 12.5854 12.6155 11.6845 13.2083 10.5928C13.2485 10.5224 13.3054 10.4923 13.3657 10.4823C13.4226 10.4722 13.4762 10.4856 13.5097 10.5023C13.6169 10.5593 13.6571 10.6932 13.6001 10.8004C12.9638 11.9658 12.006 12.9337 10.8439 13.5733Z" fill="#FFA009"/>
<path d="M7.50092 2.06641C4.52369 2.06641 2.11914 4.47096 2.11914 7.44819C2.11914 10.4254 4.52369 12.83 7.50092 12.83C10.4781 12.83 12.8827 10.4254 12.8827 7.44819C12.8827 4.47096 10.4748 2.06641 7.50092 2.06641ZM9.09168 9.77237C8.85055 10.0671 8.53575 10.2647 8.16737 10.3651C8.00662 10.4087 7.93294 10.4924 7.94299 10.6598C7.94968 10.8239 7.94299 10.9847 7.93964 11.1521C7.93964 11.2995 7.86596 11.3765 7.72195 11.3799C7.62818 11.3832 7.53441 11.3832 7.44064 11.3832C7.35692 11.3832 7.27654 11.3832 7.19282 11.3799C7.03877 11.3765 6.96509 11.2894 6.96509 11.1387C6.96174 11.0215 6.96174 10.8976 6.96174 10.7804C6.95839 10.5158 6.95169 10.5058 6.69717 10.4656C6.37232 10.412 6.05417 10.3417 5.75611 10.1977C5.52169 10.0838 5.49824 10.0269 5.56522 9.77907C5.61546 9.59487 5.66569 9.41403 5.72262 9.23319C5.76281 9.09923 5.803 9.04229 5.87333 9.04229C5.91351 9.04229 5.9671 9.06239 6.03743 9.09923C6.36562 9.27002 6.71392 9.36714 7.0823 9.41068C7.14258 9.41738 7.20621 9.42073 7.26649 9.42073C7.43729 9.42073 7.60474 9.38724 7.76549 9.31691C8.17406 9.13941 8.23769 8.66721 7.89275 8.38255C7.77554 8.28543 7.64158 8.2151 7.50092 8.15482C7.14258 7.99742 6.77085 7.8802 6.4326 7.67592C5.88337 7.34772 5.53843 6.89896 5.57862 6.22917C5.6255 5.47565 6.05082 5.00679 6.74406 4.75562C7.02872 4.6518 7.03207 4.65515 7.03207 4.3571C7.03207 4.25663 7.02872 4.15616 7.03542 4.05234C7.04211 3.82796 7.07895 3.79112 7.30333 3.78442C7.32678 3.78442 7.35692 3.78442 7.38036 3.78442C7.4239 3.78442 7.46743 3.78442 7.51097 3.78442C7.52771 3.78442 7.54781 3.78442 7.56455 3.78442C7.98987 3.78442 7.98987 3.80117 7.98987 4.25998C7.99322 4.59822 7.99322 4.59822 8.32812 4.6518C8.58599 4.69199 8.83046 4.76902 9.06824 4.87284C9.19885 4.92977 9.24908 5.02019 9.20889 5.16085C9.14861 5.36513 9.09168 5.57277 9.02805 5.77706C8.98786 5.90097 8.94767 5.9579 8.874 5.9579C8.83381 5.9579 8.78357 5.94116 8.71994 5.91101C8.39175 5.75026 8.0468 5.67324 7.68512 5.67324C7.63823 5.67324 7.59134 5.67659 7.54446 5.67659C7.43729 5.68329 7.33347 5.69668 7.23301 5.74022C6.87802 5.89427 6.82108 6.28945 7.12249 6.53057C7.27654 6.65448 7.45069 6.74156 7.63153 6.81523C7.94633 6.94584 8.26114 7.06976 8.55919 7.23385C9.5036 7.76634 9.75812 8.96192 9.09168 9.77237Z" fill="#FFA009"/>
</svg>
