<svg width="30" height="30" viewBox="0 0 30 30" fill="none" xmlns="http://www.w3.org/2000/svg">
<path d="M24.5472 0H5.4528C5.12679 0.00639114 4.81355 0.127823 4.56424 0.33873C6.55231 1.03536 7.95866 2.8121 8.17601 4.90839C8.19518 5.08735 8.19518 5.27269 8.17601 5.45164V28.6323C8.17601 29.1628 8.48285 29.6485 8.96868 29.8722C9.45451 30.0959 10.0234 30.0128 10.4262 29.6677L14.3128 26.3379L18.1994 29.6677C18.7108 30.1023 19.4588 30.1023 19.9702 29.6677L23.8568 26.3379L27.7434 29.6677C27.9928 29.8786 28.306 29.9936 28.632 29.9936C28.8302 29.9936 29.0219 29.9489 29.2073 29.8722C29.6932 29.6485 30 29.1628 30 28.6323V5.45164C30 2.44141 27.5581 0 24.5472 0ZM23.1856 19.0903H15.0032C14.2489 19.0903 13.6416 18.4768 13.6416 17.729C13.6416 16.9813 14.2553 16.3677 15.0032 16.3677H23.1856C23.9399 16.3677 24.5472 16.9813 24.5472 17.729C24.5472 18.4768 23.9335 19.0903 23.1856 19.0903ZM23.1856 13.6323H15.0032C14.2489 13.6323 13.6416 13.0187 13.6416 12.271C13.6416 11.5168 14.2553 10.9097 15.0032 10.9097H23.1856C23.9399 10.9097 24.5472 11.5232 24.5472 12.271C24.5472 13.0251 23.9335 13.6323 23.1856 13.6323ZM23.1856 8.18066H15.0032C14.2489 8.18066 13.6416 7.56711 13.6416 6.81934C13.6416 6.07158 14.2553 5.45803 15.0032 5.45803H23.1856C23.9399 5.45803 24.5472 6.07158 24.5472 6.81934C24.5472 7.56711 23.9335 8.18066 23.1856 8.18066ZM5.4528 5.45164V16.3613H1.3616C0.61368 16.3613 0 15.7478 0 15V5.45164C0 5.25991 0 5.08095 0 4.90839C0.15342 3.40009 1.49585 2.30081 2.99808 2.4542C4.50032 2.60758 5.60622 3.94972 5.4528 5.45164Z" fill="#BBBBBB"/>
</svg>
