<svg width="16" height="16" viewBox="0 0 16 16" fill="none" xmlns="http://www.w3.org/2000/svg">
<path d="M12.9031 16L12.0188 15.1156L13.6031 13.5312H5.625C3.2125 13.5312 1.25 11.5688 1.25 9.15625V8H2.5V9.15625C2.5 10.8781 3.90313 12.2812 5.625 12.2812H13.6062L12.0219 10.6969L12.9062 9.8125L16 12.9062L12.9031 16ZM14.7469 8H13.4969V6.84375C13.4969 5.12187 12.0938 3.71875 10.3719 3.71875H2.39375L3.97813 5.30312L3.09375 6.1875L0 3.09375L3.09375 0L3.97813 0.884375L2.39375 2.46875H10.375C12.7875 2.46875 14.75 4.43125 14.75 6.84375V8H14.7469Z" fill="#797979"/>
</svg>
