<svg width="30" height="30" viewBox="0 0 30 30" fill="none" xmlns="http://www.w3.org/2000/svg">
<path d="M25.5569 0C23.1301 0 21.1606 1.96875 21.1606 4.39453C21.1606 5.29102 21.4302 6.17578 21.8933 6.87305L18.6753 10.0898C17.8722 9.48633 16.9226 9.08789 15.8851 8.93555V5.10938C16.905 4.74609 17.6436 3.7793 17.6436 2.63672C17.6436 1.18359 16.4596 0 15.0059 0C13.5522 0 12.3681 1.18359 12.3681 2.63672C12.3681 3.7793 13.1067 4.74609 14.1266 5.10938V8.93555C13.0891 9.08789 12.1395 9.48633 11.3365 10.0898L8.35287 7.10742C8.66354 6.58594 8.85111 5.98242 8.85111 5.33203C8.85111 3.39258 7.27433 1.81641 5.33412 1.81641C3.3939 1.81641 1.81712 3.39258 1.81712 5.33203C1.81712 7.27148 3.3939 8.84766 5.33412 8.84766C5.98476 8.84766 6.58851 8.66016 7.1102 8.34961L10.0938 11.332C9.49004 12.1348 9.09144 13.084 8.93904 14.1211H5.11137C4.74795 13.1016 3.78077 12.3633 2.63775 12.3633C1.18406 12.3633 0 13.5469 0 15C0 16.4531 1.18406 17.6367 2.63775 17.6367C3.78077 17.6367 4.74795 16.8984 5.11137 15.8789H8.93904C9.32591 18.5625 11.442 20.6719 14.1266 21.0645V23.0332C12.6143 23.4258 11.4889 24.791 11.4889 26.4258C11.4889 28.3652 13.0657 30 15.0059 30C16.9461 30 18.5229 28.3652 18.5229 26.4258C18.5229 24.791 17.3974 23.4258 15.8851 23.0332V21.0645C17.4443 20.8418 18.7984 20.0332 19.7479 18.873L22.9836 21.457C22.9426 21.6445 22.9132 21.8379 22.9132 22.0371C22.9132 23.4902 24.0973 24.6738 25.551 24.6738C27.0047 24.6738 28.1887 23.4902 28.1887 22.0371C28.1887 20.584 27.0047 19.4004 25.551 19.4004C24.9414 19.4004 24.3845 19.6172 23.9332 19.9688L20.6741 17.373C20.9789 16.6465 21.1489 15.8438 21.1489 15.0059C21.1489 13.6289 20.6741 12.3633 19.9062 11.3379L23.1243 8.12109C23.8218 8.58398 24.6483 8.85352 25.5451 8.85352C27.9719 8.85352 30 6.82617 30 4.40039C30 1.97461 27.9836 0 25.5569 0Z" fill="#BBBBBB"/>
</svg>
