<svg width="26" height="22" viewBox="0 0 26 22" fill="none" xmlns="http://www.w3.org/2000/svg">
<path d="M23.4725 21.2041C23.5311 21.5779 23.2772 21.9323 22.8996 21.9903C22.867 21.9967 22.828 21.9967 22.7954 21.9967H2.20949C1.82537 21.9967 1.51938 21.681 1.51938 21.3072C1.51938 21.275 1.51938 21.2363 1.52589 21.2041L2.0923 17.879C2.12485 17.6792 2.30063 17.531 2.50896 17.5375H22.4959C22.7043 17.5375 22.8801 17.6792 22.9126 17.879L23.4725 21.2041ZM22.9061 4.85556L19.436 6.93054C18.811 7.3043 17.9907 7.12386 17.5871 6.51812L13.6418 0.608925C13.2251 -0.0161486 12.3788 -0.183694 11.7472 0.228726C11.5975 0.33183 11.4608 0.460711 11.3631 0.608925L7.41782 6.50523C7.01417 7.12386 6.18735 7.3043 5.55584 6.91765L2.09881 4.85556C1.44777 4.46247 0.601412 4.66224 0.204277 5.30664C0.021985 5.60307 -0.0431192 5.95105 0.0284954 6.28614L2.04021 15.1467C2.08579 15.3336 2.25506 15.4689 2.45037 15.4689H22.561C22.7564 15.4689 22.9256 15.3336 22.9712 15.1467L24.9829 6.28614C25.1327 5.55151 24.6509 4.82978 23.9022 4.68157C23.5571 4.61713 23.1991 4.67512 22.9061 4.85556Z" fill="url(#paint0_linear_192_1386)"/>
<defs>
<linearGradient id="paint0_linear_192_1386" x1="0.719717" y1="0.00294469" x2="26.6113" y2="0.733632" gradientUnits="userSpaceOnUse">
<stop stopColor="#5936F1"/>
<stop offset="0.995389" stopColor="#2ADBDF"/>
<stop offset="0.9998" stopColor="#4BB3E7"/>
<stop offset="0.9999" stopColor="#47DAE3"/>
</linearGradient>
</defs>
</svg>
